<svg width="278" height="60" viewBox="0 0 278 60" fill="none" xmlns="http://www.w3.org/2000/svg">
<path fill-rule="evenodd" clip-rule="evenodd" d="M69.0972 44.8002V5.17053H94.3369V10.1611H74.3329V22.341H92.2856V27.3316H74.3329V39.8097H95.8114V44.8002H69.0972ZM122.397 44.8004L113.677 34.2244L105.021 44.8004H98.8654L110.727 30.6592L98.2241 16.1031H105.084L113.677 27.0357L122.334 16.1031H129.129L117.267 30.6592L128.553 44.8004H122.397ZM146.543 20.5655C154.478 20.2194 158.886 24.0646 158.886 30.4222C158.886 37.6464 154.307 40.9885 148.087 40.9885C140.853 40.9885 137.587 35.3544 137.407 32.4251C136.846 23.2891 142.765 20.7309 146.543 20.5655ZM137.015 60V40.4631C138.983 44.1819 144.435 45.8157 148.668 45.8157C157.082 45.8157 164.458 39.5777 164.458 30.4222C164.458 21.0937 157.122 15.3901 147.466 15.3901C137.888 15.3901 131.716 23.3398 131.716 30.7663V60H137.015ZM168.879 44.8004V16.1032H174.06V19.1548C176.598 16.4812 180.541 15.4492 184.772 15.4492V20.6774L184.757 20.6759C184.096 20.6068 177.889 19.9572 174.06 27.3985V44.8004H168.879ZM192.025 28.58C192.281 24.2428 196.081 20.2196 201.122 20.2196C207.73 20.2196 211.004 24.3616 211.068 28.58H192.025ZM201.578 15.3901C192.729 15.3901 186.318 22.1042 186.318 30.4222C186.318 39.3936 192.922 45.8157 202.155 45.8157C207.156 45.8157 211.325 43.9087 214.466 41.0566L211.068 37.7458C208.567 40.1226 206.13 41.1435 202.54 41.2359C197.702 41.3596 192.473 38.5026 192.089 33.0958H216.67V30.7781C216.67 22.1633 212.556 15.3901 201.578 15.3901ZM219.195 40.7654C219.195 40.7654 223.033 37.6158 223.041 37.6096C222.969 37.6686 224.982 39.511 225.191 39.6722C226.056 40.3366 227.038 40.8293 228.127 41.0955C231.465 41.9114 237.49 41.6466 237.909 37.4587C238.148 35.0688 236.205 33.7643 234.045 33.0172C232.779 32.5792 231.47 32.2648 230.161 31.9505C228.53 31.5586 226.899 31.1668 225.35 30.5355C222.186 29.2456 220.156 26.9453 220.156 23.6484C220.156 15.0134 233.385 13.5797 239.395 17.6175C239.709 17.8288 242.643 20.2896 242.517 20.38L238.629 23.1654C236.771 21.0861 234.865 19.9929 230.826 19.9345C228.827 19.906 225.99 20.7136 225.407 22.7637C224.599 25.6082 228.114 26.6861 230.386 27.2316C231.075 27.3968 231.775 27.5456 232.479 27.6949L232.479 27.6949C234.906 28.2102 237.366 28.7326 239.484 29.9622C243.136 32.0825 244.091 36.6741 242.652 40.2525C241.096 44.1221 236.578 45.6413 232.446 45.8185C227.583 46.0277 223.407 44.5828 219.902 41.4263C219.84 41.3707 219.194 40.7654 219.195 40.7654ZM250.001 37.6096L246.154 40.7654C246.154 40.7654 246.8 41.3707 246.862 41.4263C250.368 44.5828 254.544 46.0277 259.407 45.8185C263.538 45.6413 268.056 44.1221 269.612 40.2525C271.051 36.6741 270.096 32.0825 266.445 29.9622C264.326 28.7324 261.866 28.2101 259.438 27.6948L259.438 27.6947C258.735 27.5455 258.034 27.3968 257.346 27.2316C255.073 26.6861 251.56 25.6082 252.367 22.7637C252.949 20.7136 255.787 19.906 257.787 19.9345C261.825 19.9929 263.731 21.0861 265.59 23.1654L269.476 20.38C269.603 20.2896 266.67 17.8288 266.356 17.6175C260.345 13.5797 247.117 15.0134 247.116 23.6484C247.116 26.9453 249.145 29.2456 252.31 30.5355C253.859 31.1668 255.491 31.5586 257.122 31.9505C258.431 32.2648 259.739 32.5792 261.006 33.0172C263.165 33.7643 265.108 35.0688 264.869 37.4587C264.451 41.6466 258.424 41.9114 255.087 41.0955C253.999 40.8293 253.016 40.3366 252.151 39.6722C251.941 39.511 249.93 37.6686 250.001 37.6096ZM271.139 16.0482V12.9744H269.951V12.4128H273.016V12.9744H271.827V16.0482H271.139ZM276.811 13.2412V16.0482H277.499V12.4128H276.529L275.464 14.9092L274.393 12.4128H273.423V16.0482H274.111V13.2412L275.317 16.0482H275.611L276.811 13.2412Z" fill="#D1332C"/>
<path fill-rule="evenodd" clip-rule="evenodd" d="M66.2131 7.44424C66.2105 7.47912 66.208 7.51402 66.2067 7.54941C62.1005 7.70508 58.8125 10.7678 58.6715 14.579C58.6298 14.5806 58.5883 14.5832 58.5467 14.5858C58.48 14.5901 58.4132 14.5943 58.3453 14.5943C58.2773 14.5943 58.2105 14.5901 58.1438 14.5858C58.1023 14.5832 58.0607 14.5806 58.019 14.579C57.878 10.7678 54.59 7.70508 50.4838 7.54941C50.4825 7.51402 50.48 7.47911 50.4774 7.44423C50.4738 7.39556 50.4703 7.34694 50.4703 7.29714C50.4703 7.24767 50.4739 7.1989 50.4774 7.15016C50.48 7.11537 50.4825 7.08058 50.4838 7.04556C54.59 6.88919 57.878 3.82648 58.019 0.0152892C58.0607 0.0136888 58.1023 0.0110645 58.1438 0.00843814C58.2105 0.00422179 58.2773 0 58.3453 0C58.4132 0 58.48 0.00422179 58.5467 0.00843814C58.5882 0.0110645 58.6298 0.0136888 58.6715 0.0152892C58.8125 3.82648 62.1005 6.88919 66.2067 7.04556C66.208 7.08058 66.2105 7.11536 66.2131 7.15015C66.2167 7.1989 66.2202 7.24766 66.2202 7.29714C66.2202 7.34694 66.2167 7.39556 66.2131 7.44424ZM11.4771 30.4223L19.2358 10.8159L27.6996 30.4223H11.4771ZM29.8799 35.3529L33.6629 44.8002H39.1132L22.5704 5.17053H16.6072L0 44.8002H5.45024L9.23323 35.3529H29.8799ZM47.6185 44.7996H42.3055V5.17053H47.6185V44.7996ZM55.6891 44.8002H61.0029V16.7041H55.6891V44.8002Z" fill="#EB9030"/>
</svg>
