<svg width="214" height="60" viewBox="0 0 214 60" fill="none" xmlns="http://www.w3.org/2000/svg">
<path fill-rule="evenodd" clip-rule="evenodd" d="M123.225 40.9731C127.236 40.526 136.113 39.5364 137.699 41.4278C139.286 43.3215 135.937 51.1187 134.438 54.6096L134.435 54.6171C133.981 55.6725 134.954 56.0982 135.979 55.2993C142.638 50.1079 144.358 39.2295 142.994 37.6582C141.641 36.1023 130 34.7588 122.895 39.4099C121.802 40.1249 121.991 41.1112 123.203 40.9756L123.225 40.9731ZM86.6305 60C102.125 60 120.121 55.4594 132.533 46.9227C134.587 45.51 132.827 43.3907 130.729 44.2211C116.814 49.7214 101.691 52.3825 87.934 52.3825C67.54 52.3825 47.7948 47.1673 31.8281 38.5075C30.4316 37.7498 29.3951 39.0863 30.5569 40.0635C45.3573 52.5188 64.9128 60 86.6305 60Z" fill="#EC912D"/>
<path fill-rule="evenodd" clip-rule="evenodd" d="M24.5872 34.8446C25.0799 35.0913 25.7114 35.0669 26.1494 34.7013L26.1652 34.7146C27.4844 33.62 29.8852 31.6768 31.2352 30.622C31.7737 30.2124 31.6784 29.5456 31.2569 28.985C31.1281 28.8192 30.9984 28.6566 30.8694 28.4951C29.7884 27.1405 28.7617 25.8541 28.7617 23.2742V13.6736C28.7617 13.3432 28.7637 13.0149 28.7657 12.6892C28.7886 9.00434 28.8095 5.64258 25.8547 3.06856C23.3182 0.800342 19.1122 0 15.8955 0C9.60372 0 2.58224 2.18923 1.11 9.43565C0.953247 10.2052 1.5555 10.61 2.09699 10.7232L8.50497 11.3698C9.10497 11.3418 9.53922 10.7924 9.65397 10.2374C10.2037 7.7413 12.447 6.53695 14.9685 6.53695C16.3282 6.53695 17.8754 7.00387 18.6794 8.13763C19.5103 9.2726 19.4972 10.7821 19.4854 12.1389C19.484 12.297 19.4827 12.4531 19.4827 12.6063V13.4066C18.8878 13.4688 18.2645 13.5277 17.6227 13.5884C14.1281 13.9187 10.082 14.3012 7.05073 15.5413C2.90699 17.2091 0 20.6104 0 25.6131C0 32.0158 4.32899 35.2172 9.89622 35.2172C14.5972 35.2172 17.1682 34.1834 20.7967 30.738C20.9804 30.9858 21.1453 31.214 21.3006 31.429C22.16 32.619 22.7266 33.4036 24.5872 34.8446ZM19.4828 19.9915C19.4827 19.8872 19.4825 19.7823 19.4825 19.6766V18.3429C14.7005 18.3429 9.64856 19.2977 9.64856 24.5457C9.64856 27.2131 11.1336 29.0144 13.6693 29.0144C15.5248 29.0144 17.195 27.9477 18.2458 26.2135C19.4876 24.1728 19.4854 22.2541 19.4828 19.9915ZM112.826 34.7013C112.388 35.0669 111.757 35.0913 111.263 34.8446C109.402 33.4025 108.836 32.6178 107.975 31.4262C107.821 31.212 107.657 30.9847 107.474 30.738C103.844 34.1834 101.273 35.2172 96.5725 35.2172C91.006 35.2172 86.6755 32.0158 86.6755 25.6131C86.6755 20.6104 89.5825 17.2091 93.727 15.5413C96.7577 14.3012 100.804 13.9187 104.3 13.5883L104.3 13.5883C104.942 13.5277 105.565 13.4687 106.16 13.4066V12.6063C106.16 12.4541 106.161 12.2991 106.162 12.142V12.1411C106.174 10.7838 106.187 9.27323 105.356 8.13763C104.551 7.00387 103.005 6.53695 101.644 6.53695C99.1225 6.53695 96.8808 7.7413 96.3295 10.2374C96.2155 10.7924 95.7805 11.3418 95.1813 11.3698L88.7725 10.7232C88.2318 10.61 87.6303 10.2052 87.7863 9.43565C89.2593 2.18923 96.28 0 102.572 0C105.788 0 109.994 0.800342 112.53 3.06856C115.485 5.64216 115.464 9.00323 115.441 12.6874C115.439 13.0137 115.437 13.3426 115.437 13.6736V23.2742C115.437 25.8522 116.464 27.1387 117.544 28.4922L117.544 28.4923C117.673 28.6548 117.804 28.8182 117.933 28.985C118.355 29.5456 118.451 30.2124 117.911 30.622C116.561 31.6768 114.161 33.62 112.841 34.7146L112.826 34.7013ZM106.16 19.6766L106.161 19.988C106.163 22.2521 106.165 24.1717 104.923 26.2135C103.871 27.9477 102.202 29.0144 100.346 29.0144C97.8098 29.0144 96.3256 27.2131 96.3256 24.5457C96.3256 19.2977 101.377 18.3429 106.16 18.3429V19.6766ZM37.5956 34.7803H44.2068C44.9118 34.7803 45.4833 34.2735 45.4826 33.6416L45.4848 16.8778C45.4848 16.7469 45.4846 16.6143 45.4843 16.4801C45.4779 12.862 45.4695 8.15929 50.0523 8.15929C54.2671 8.15929 54.1961 12.3512 54.1384 15.7606V15.7607V15.7609V15.7611V15.7612C54.1319 16.1457 54.1255 16.5203 54.1255 16.8778L54.1323 33.6444C54.1323 34.2505 54.6558 34.7404 55.3195 34.7803H61.9233C62.6275 34.7803 63.199 34.2735 63.199 33.6416V16.8778L63.1988 16.6671L63.1983 16.4582C63.1938 14.6861 63.1878 12.2987 63.8155 10.8217C64.4943 9.22385 66.1615 8.2257 67.7657 8.2257C69.679 8.2257 71.1602 8.82473 71.6537 10.9546C71.9034 11.9762 71.8706 14.3448 71.8487 15.9188C71.8436 16.2929 71.839 16.6222 71.839 16.8778L71.8405 33.6444C71.8405 34.2505 72.364 34.7404 73.0277 34.7803H79.6322C80.3357 34.7803 80.9072 34.2735 80.9072 33.6416L80.9125 13.6834C80.9125 13.1938 80.9214 12.6946 80.9305 12.1906V12.1905V12.1904V12.1903V12.1902C80.9842 9.20014 81.041 6.04458 79.2452 3.76685C77.3935 1.37071 74.3695 0.306152 71.5922 0.306152C67.7035 0.306152 64.0623 2.16966 62.458 6.16298C60.6063 2.16966 58.0135 0.306152 53.8788 0.306152C49.8056 0.306152 46.7816 2.16966 45.1766 6.16298H45.0528V2.03335C45.0123 1.45669 44.4948 1.00235 43.8506 0.97159L37.6931 0.972988C36.9881 0.972988 36.4173 1.47906 36.4173 2.11164L36.4128 33.7388C36.4631 34.3008 36.9663 34.7418 37.5956 34.7803ZM123.485 2.03474V6.5537C123.49 7.23032 124.047 7.69165 124.741 7.69165L136.097 7.69305L123.054 25.1321C122.26 26.2505 122.245 27.5052 122.245 28.2384V32.8224C122.245 33.4871 123.037 34.2449 123.793 33.8695C131.189 30.2068 140.066 30.5647 146.756 33.8303C147.576 34.2302 148.356 33.4613 148.356 32.7965V27.9749C148.288 27.3235 148.059 26.6587 147.203 26.2107C143.406 24.2213 138.985 23.6391 134.806 23.73L146.064 8.74992C147.108 7.40367 147.695 6.5551 147.7 5.90504L147.702 2.02914C147.7 1.35881 147.142 0.887695 146.448 0.887695L124.714 0.889792C124.045 0.888394 123.488 1.34693 123.485 2.03474ZM166.472 6.76123C161.595 6.76123 161.287 12.9508 161.287 16.8106L161.287 16.9448C161.286 20.8589 161.285 28.9241 166.41 28.9241C171.533 28.9241 171.779 22.2683 171.779 18.2086C171.779 15.5468 171.656 12.3517 170.792 9.8228C170.051 7.62658 168.57 6.76123 166.472 6.76123ZM166.41 0.306152C176.224 0.306152 181.531 8.1593 181.531 18.1423C181.531 27.7918 175.669 35.4464 166.41 35.4464C156.782 35.4464 151.536 27.5926 151.536 17.8095C151.536 7.95938 156.843 0.306152 166.41 0.306152ZM187.67 34.7803H194.257C194.962 34.7803 195.533 34.2735 195.545 33.6416V16.6115C195.545 14.4816 195.67 12.5517 196.595 10.6218C197.335 9.09105 198.816 8.09289 200.421 8.09289C204.634 8.09289 204.593 12.3955 204.562 15.7792C204.559 16.0642 204.556 16.3427 204.556 16.6115V33.7835C204.628 34.3246 205.122 34.7432 205.734 34.7803H212.362C213.016 34.7803 213.555 34.3448 213.63 33.7835V13.8826C213.63 10.8217 213.63 6.5621 211.901 4.03316C210.049 1.30431 207.148 0.306152 204.186 0.306152C199.618 0.306152 197.027 2.36887 195.175 6.69491H195.051V1.85721C194.929 1.36652 194.453 0.99885 193.876 0.97159L187.743 0.972988C187.077 0.972988 186.529 1.42733 186.473 2.00539L186.484 33.6444C186.484 34.2505 187.008 34.7404 187.67 34.7803Z" fill="#0A0B09"/>
</svg>
