<svg width="100" height="100" viewBox="0 0 100 100" fill="none" xmlns="http://www.w3.org/2000/svg">
<path d="M73.7939 31.753C77.2699 31.753 80.0878 28.8982 80.0878 25.3765C80.0878 21.8549 77.2699 19 73.7939 19C70.3179 19 67.5 21.8549 67.5 25.3765C67.5 28.8982 70.3179 31.753 73.7939 31.753Z" fill="#E4D2F7"/>
<path d="M37 68C47.4934 68 56 59.7173 56 49.5C56 39.2827 47.4934 31 37 31C26.5066 31 18 39.2827 18 49.5C18 59.7173 26.5066 68 37 68Z" fill="#DFF0F8"/>
<path d="M68.4108 70.5656V27.4347C68.4108 27.4338 68.411 27.433 68.411 27.4321C68.411 27.4312 68.4108 27.4305 68.4108 27.4296V21.8304C68.4108 20.2697 67.1375 19 65.5722 19H34.8366C33.2728 19 32.0003 20.2697 32 21.8304V76.1602C32 77.726 33.2725 79 34.8366 79H65.5721C67.1374 79 68.4107 77.726 68.4107 76.1602V70.5707C68.4107 70.5698 68.4108 70.569 68.4108 70.5681C68.4108 70.5672 68.4108 70.5665 68.4108 70.5656ZM33.7742 28.3192H66.6366V69.681H33.7742V28.3192ZM34.8366 20.7742H65.5721C66.1591 20.7742 66.6365 21.2481 66.6365 21.8304V26.545H33.7741V21.8305C33.7743 21.2481 34.2509 20.7742 34.8366 20.7742ZM65.5721 77.2258H34.8366C34.2507 77.2258 33.7742 76.7479 33.7742 76.1602V71.4552H66.6366V76.1602C66.6366 76.7478 66.1591 77.2258 65.5721 77.2258Z" fill="#3F3F3F"/>
<path d="M50.2066 71.8191C48.8129 71.8191 47.6792 72.9503 47.6792 74.3405C47.6792 75.7335 48.8131 76.8669 50.2066 76.8669C51.5978 76.8669 52.7295 75.7337 52.7295 74.3405C52.7295 72.9502 51.5978 71.8191 50.2066 71.8191ZM50.2066 75.0927C49.7913 75.0927 49.4534 74.7553 49.4534 74.3405C49.4534 73.9285 49.7913 73.5933 50.2066 73.5933C50.6195 73.5933 50.9553 73.9286 50.9553 74.3405C50.9553 74.7553 50.6195 75.0927 50.2066 75.0927Z" fill="#3F3F3F"/>
<path d="M47.3373 24.5087H53.074C53.5639 24.5087 53.9611 24.1115 53.9611 23.6216C53.9611 23.1317 53.5639 22.7345 53.074 22.7345H47.3373C46.8474 22.7345 46.4502 23.1317 46.4502 23.6216C46.4502 24.1115 46.8474 24.5087 47.3373 24.5087Z" fill="#3F3F3F"/>
<path d="M63.934 41.991H50.9462C50.4563 41.991 50.0591 42.3881 50.0591 42.8781C50.0591 43.368 50.4563 43.7652 50.9462 43.7652H63.9339C64.4238 43.7652 64.821 43.368 64.821 42.8781C64.821 42.3881 64.4239 41.991 63.934 41.991Z" fill="#3F3F3F"/>
<path d="M64.8211 37.5712C64.8211 37.0813 64.4239 36.6841 63.934 36.6841H45.9013C45.4113 36.6841 45.0142 37.0813 45.0142 37.5712C45.0142 38.0611 45.4113 38.4583 45.9013 38.4583H63.934C64.4239 38.4583 64.8211 38.0611 64.8211 37.5712Z" fill="#3F3F3F"/>
</svg>
