<svg width="93" height="101" viewBox="0 0 93 101" fill="none" xmlns="http://www.w3.org/2000/svg">
<rect x="26" y="14" width="56" height="79" fill="#DFF0F8"/>
<circle cx="76" cy="84" r="17" fill="#E4D2F7"/>
<path d="M88.5 0H1.5625C1.1481 0 0.750671 0.16462 0.457646 0.457646C0.16462 0.750671 0 1.1481 0 1.5625V25.625C0 26.0394 0.16462 26.4368 0.457646 26.7299C0.750671 27.0229 1.1481 27.1875 1.5625 27.1875H12.2188V88.4375C12.2188 88.8519 12.3834 89.2493 12.6764 89.5424C12.9694 89.8354 13.3668 90 13.7812 90H76.2812C76.6956 90 77.0931 89.8354 77.3861 89.5424C77.6791 89.2493 77.8438 88.8519 77.8438 88.4375V27.1875H88.5C88.9144 27.1875 89.3118 27.0229 89.6049 26.7299C89.8979 26.4368 90.0625 26.0394 90.0625 25.625V1.5625C90.0625 1.1481 89.8979 0.750671 89.6049 0.457646C89.3118 0.16462 88.9144 0 88.5 0ZM12.2188 16.4375H10.75V10.7031H12.2188V16.4375ZM23.9375 65.7344C23.9344 65.3869 24.0348 65.0465 24.2259 64.7563C24.417 64.4661 24.6902 64.2394 25.0106 64.105C25.331 63.9706 25.6841 63.9347 26.025 64.0017C26.3659 64.0687 26.6792 64.2357 26.9249 64.4814C27.1705 64.7271 27.3375 65.0403 27.4046 65.3812C27.4716 65.7221 27.4356 66.0753 27.3012 66.3957C27.1668 66.7161 26.9401 66.9892 26.65 67.1803C26.3598 67.3714 26.0193 67.4718 25.6719 67.4688C25.2132 67.4647 24.7744 67.2806 24.45 66.9563C24.1256 66.6319 23.9416 66.1931 23.9375 65.7344ZM25.6719 60.8594C25.0778 60.8693 24.4904 60.9858 23.9375 61.2031V10.9844H66.125V61.2031C65.5721 60.9858 64.9846 60.8693 64.3906 60.8594C63.0977 60.8594 61.8577 61.373 60.9435 62.2872C60.0292 63.2015 59.5156 64.4414 59.5156 65.7344C59.5164 66.3293 59.6332 66.9185 59.8594 67.4688H30.1719C30.3981 66.9185 30.5148 66.3293 30.5156 65.7344C30.5156 64.4468 30.0063 63.2116 29.0988 62.2982C28.1913 61.3849 26.9594 60.8676 25.6719 60.8594ZM62.6875 65.7344C62.6844 65.3876 62.7844 65.0477 62.9748 64.7579C63.1652 64.4681 63.4374 64.2413 63.7569 64.1065C64.0764 63.9716 64.4287 63.9347 64.7692 64.0005C65.1097 64.0662 65.423 64.2317 65.6693 64.4758C65.9156 64.7199 66.0838 65.0317 66.1526 65.3716C66.2214 65.7114 66.1877 66.0641 66.0557 66.3848C65.9237 66.7055 65.6995 66.9797 65.4114 67.1727C65.1232 67.3657 64.7843 67.4687 64.4375 67.4688C63.9761 67.4688 63.5333 67.2865 63.2056 66.9617C62.8778 66.6369 62.6916 66.1958 62.6875 65.7344ZM20.8125 69.0312C20.8125 69.4456 20.9771 69.8431 21.2701 70.1361C21.5632 70.4291 21.9606 70.5938 22.375 70.5938H67.6875C68.1019 70.5938 68.4993 70.4291 68.7924 70.1361C69.0854 69.8431 69.25 69.4456 69.25 69.0312V10.7031H74.7188V74.7656H15.3438V10.7031H20.8125V69.0312ZM79.3125 10.7031V16.3906H77.8438V10.7031H79.3125ZM15.3438 77.8906H74.7188V80.8281H15.3438V77.8906ZM15.3438 86.875V83.9531H74.7188V86.875H15.3438ZM86.9375 24.0625H77.8438V19.5625H80.875C81.2894 19.5625 81.6868 19.3979 81.9799 19.1049C82.2729 18.8118 82.4375 18.4144 82.4375 18V9.14062C82.4375 8.72622 82.2729 8.3288 81.9799 8.03577C81.6868 7.74275 81.2894 7.57812 80.875 7.57812H9.1875C8.7731 7.57812 8.37567 7.74275 8.08264 8.03577C7.78962 8.3288 7.625 8.72622 7.625 9.14062V17.9531C7.625 18.3675 7.78962 18.765 8.08264 19.058C8.37567 19.351 8.7731 19.5156 9.1875 19.5156H12.2188V24.0156H3.125V3.125H86.9375V24.0625Z" fill="#3F3F3F"/>
<path d="M39.6562 41.3124C40.5946 41.3104 41.5232 41.123 42.3889 40.7611C43.2546 40.3992 44.0403 39.8699 44.7009 39.2035C45.3615 38.5371 45.8839 37.7468 46.2383 36.878C46.5926 36.0091 46.7718 35.0788 46.7656 34.1405C46.7656 33.3488 47.0006 32.5748 47.4408 31.9167C47.8811 31.2585 48.5067 30.7458 49.2385 30.4436C49.9703 30.1413 50.7754 30.063 51.5518 30.2186C52.3281 30.3742 53.0408 30.7567 53.5996 31.3177C54.1584 31.8787 54.5381 32.5929 54.6907 33.3698C54.8432 34.1468 54.7618 34.9515 54.4566 35.6821C54.1515 36.4128 53.6364 37.0364 52.9765 37.474C52.3167 37.9117 51.5418 38.1436 50.75 38.1405C50.3356 38.1405 49.9382 38.3052 49.6451 38.5982C49.3521 38.8912 49.1875 39.2886 49.1875 39.703C49.1875 40.1174 49.3521 40.5149 49.6451 40.8079C49.9382 41.1009 50.3356 41.2655 50.75 41.2655C52.365 41.2595 53.9303 40.7062 55.1903 39.696C56.4503 38.6857 57.3306 37.2781 57.6875 35.703H59.9687C60.3832 35.703 60.7806 35.5384 61.0736 35.2454C61.3666 34.9524 61.5312 34.5549 61.5312 34.1405C61.5312 33.7261 61.3666 33.3287 61.0736 33.0357C60.7806 32.7427 60.3832 32.578 59.9687 32.578H57.6875C57.3203 30.8529 56.3249 29.3258 54.8948 28.2936C53.4646 27.2613 51.7018 26.7975 49.9488 26.9922C48.1958 27.187 46.5778 28.0265 45.4091 29.3475C44.2404 30.6686 43.6045 32.3769 43.625 34.1405C43.6281 34.933 43.3957 35.7085 42.9574 36.3687C42.5191 37.0289 41.8945 37.544 41.163 37.8487C40.4314 38.1534 39.6259 38.2339 38.8485 38.08C38.0711 37.9262 37.357 37.5449 36.7966 36.9846C36.2363 36.4242 35.855 35.7101 35.7011 34.9327C35.5473 34.1553 35.6278 33.3497 35.9325 32.6182C36.2372 31.8867 36.7523 31.2621 37.4125 30.8238C38.0727 30.3854 38.8482 30.1531 39.6406 30.1562C40.055 30.1562 40.4525 29.9916 40.7455 29.6985C41.0385 29.4055 41.2031 29.0081 41.2031 28.5937C41.2031 28.1793 41.0385 27.7818 40.7455 27.4888C40.4525 27.1958 40.055 27.0312 39.6406 27.0312C38.0297 27.0371 36.4683 27.5887 35.2112 28.5961C33.9542 29.6035 33.0755 31.0071 32.7188 32.578H30.0937C29.6793 32.578 29.2819 32.7427 28.9889 33.0357C28.6959 33.3287 28.5312 33.7261 28.5312 34.1405C28.5312 34.5549 28.6959 34.9524 28.9889 35.2454C29.2819 35.5384 29.6793 35.703 30.0937 35.703H32.7188C33.0664 37.2868 33.9428 38.705 35.2036 39.7245C36.4645 40.744 38.0348 41.304 39.6562 41.3124Z" fill="#3F3F3F"/>
</svg>
