<svg width="90" height="70" viewBox="0 0 90 70" fill="none" xmlns="http://www.w3.org/2000/svg">
<path d="M10.116 23.2965C9.92753 23.9544 9.75685 24.5936 9.60679 25.2029C9.4179 25.9703 9.24395 26.6674 9.08684 27.2928C8.93194 27.9056 8.82282 28.3986 8.76168 28.7586C8.63677 29.3976 8.21879 29.8005 7.55131 29.9319C6.97654 30.0453 6.35904 29.9983 5.72239 29.7913C5.09542 29.5866 4.52444 29.2312 4.02543 28.7346C3.50201 28.2135 3.23631 27.5578 3.23631 26.7862C3.23631 26.1579 3.39363 25.1651 3.71721 23.7509C4.03196 22.3718 4.48708 20.7357 5.07027 18.8882C5.64883 17.0543 6.3502 15.0345 7.15469 12.8845C7.84669 11.0369 8.62151 9.17743 9.46315 7.34399C9.73875 6.74333 10.308 6.32998 10.9647 6.25369C12.4511 6.081 13.7406 6.12341 14.8328 6.38133C15.4906 6.53644 15.8445 7.25222 15.5686 7.8693C14.864 9.44377 14.214 11.0142 13.6338 12.5431C13.1641 13.7813 12.7132 15.0063 12.2887 16.1979C12.2469 16.315 12.3667 16.4247 12.4798 16.3727C13.0463 16.1117 13.6061 15.8043 14.1528 15.4532C15.0491 14.8774 15.8654 14.1896 16.5794 13.4089C17.291 12.6302 17.8744 11.7508 18.3131 10.7949C18.7471 9.84965 18.9672 8.82112 18.9672 7.73787C18.9672 6.34492 18.5815 5.3165 17.8212 4.68122C17.0517 4.03847 15.9674 3.71278 14.5987 3.71278C13.141 3.71278 11.8082 4.05867 10.6369 4.74099C9.43642 5.43972 8.39768 6.3002 7.5492 7.29884C6.69557 8.30243 6.02304 9.37558 5.55065 10.4884C5.08269 11.5917 4.84508 12.5588 4.84508 13.363C4.84508 13.9398 4.54075 14.3563 3.98818 14.5356C3.5037 14.6932 2.97018 14.6705 2.42203 14.4656C1.89461 14.2689 1.40623 13.8817 0.969732 13.3146C0.530286 12.7443 0.307617 11.9721 0.307617 11.0195C0.307617 10.1882 0.622574 9.20847 1.27017 8.02462C1.90187 6.87108 2.83474 5.74805 4.04311 4.6869C5.2498 3.62712 6.77333 2.70761 8.57163 1.95436C10.3813 1.19659 12.473 0.8125 14.7878 0.8125C16.1064 0.8125 17.4283 0.966979 18.7166 1.27173C20.0157 1.57963 21.1929 2.04781 22.2156 2.6632C23.2507 3.28596 24.1008 4.06804 24.742 4.98786C25.3948 5.92379 25.7256 7.02124 25.7256 8.24982C25.7256 9.57352 25.4351 10.8145 24.8621 11.9381C24.2937 13.0515 23.5121 14.0682 22.539 14.9601C21.575 15.8447 20.4324 16.6255 19.1427 17.2803C18.0791 17.8197 16.9478 18.2796 15.774 18.6502C15.6994 18.6737 15.6724 18.7123 15.6758 18.7903C15.7013 19.3759 15.7431 19.953 15.801 20.5105C15.8674 21.1498 15.9556 21.7736 16.063 22.3647C16.1686 22.9457 16.2955 23.5118 16.44 24.0475C16.5521 24.4619 16.677 24.8659 16.8113 25.2481C16.8969 25.4925 16.9869 25.7307 17.0787 25.9559C17.2621 26.408 17.4646 26.8403 17.6802 27.2415C17.8913 27.6349 18.1204 28.0085 18.3612 28.3521C18.5951 28.6865 18.8466 29.0015 19.109 29.2886C19.364 29.5674 19.6338 29.8248 19.9117 30.0536C20.1824 30.2767 20.4676 30.4781 20.7595 30.6528C21.0435 30.8223 21.3415 30.97 21.6449 31.0917C21.9442 31.2114 22.2542 31.3075 22.5659 31.3775C22.8773 31.4475 23.1999 31.4935 23.5247 31.5143C23.8495 31.5347 24.1872 31.5301 24.5244 31.5C24.8669 31.4699 25.217 31.413 25.566 31.3311C25.922 31.2474 26.2857 31.1359 26.6471 30.9992C27.0172 30.8594 27.3917 30.6905 27.7608 30.4974C27.9022 30.4237 28.0445 30.3456 28.1865 30.2635C28.6474 29.9975 29.2349 30.1243 29.5447 30.5569C29.8546 30.9896 29.7855 31.5868 29.3851 31.9372C29.1887 32.1093 28.9916 32.2767 28.7956 32.438C28.322 32.8268 27.8464 33.1872 27.3824 33.5093C26.9405 33.816 26.4923 34.0998 26.0501 34.3525C25.8281 34.4796 25.5953 34.6051 25.3595 34.725C24.9048 34.9556 24.4443 35.159 23.9913 35.3298C23.5389 35.4996 23.085 35.6399 22.6423 35.7469C22.1999 35.854 21.7549 35.9313 21.3193 35.9762C21.0095 36.0078 20.6989 36.0239 20.3959 36.0239C20.2733 36.0239 20.1511 36.0214 20.0285 36.0161C19.6081 35.998 19.1892 35.9481 18.784 35.868C18.5827 35.8286 18.3809 35.7805 18.1831 35.7248C17.992 35.6721 17.7957 35.609 17.5995 35.5374C17.2217 35.3997 16.8481 35.2301 16.4903 35.0337C16.1386 34.8408 15.7937 34.6176 15.4658 34.3704C15.2012 34.1707 14.9414 33.9514 14.6942 33.7181C14.3967 33.4376 14.1076 33.1274 13.8337 32.7959C13.5639 32.4694 13.3049 32.1161 13.0639 31.7458C12.8231 31.3759 12.5948 30.9822 12.3851 30.575C12.1748 30.1684 11.9769 29.7361 11.7962 29.2902C11.6178 28.8497 11.4502 28.3807 11.2991 27.8967C11.1508 27.4211 11.0144 26.9173 10.8942 26.3989C10.7745 25.8813 10.6706 25.3441 10.5843 24.8019C10.5076 24.323 10.4425 23.8257 10.3909 23.3208C10.3752 23.167 10.1586 23.1478 10.116 23.2965Z" fill="#FD6250"/>
<path d="M89.1691 3.93522C89.1691 6.10867 87.4068 7.87045 85.2339 7.87045C83.0605 7.87045 81.2983 6.10867 81.2983 3.93522C81.2983 1.76189 83.0605 0 85.2339 0C87.4068 0 89.1691 1.76189 89.1691 3.93522Z" fill="#FD6250"/>
<path d="M88.2901 19.8083C88.0985 19.5108 87.7292 19.3184 87.3491 19.3184C86.9884 19.3184 86.6646 19.4874 86.4611 19.7824C86.2276 20.1201 85.9399 20.521 85.6052 20.9741C85.2381 21.471 84.8418 21.9476 84.4276 22.3902C84.0159 22.8307 83.6147 23.2137 83.2348 23.5286C82.8422 23.8545 82.588 23.9228 82.4442 23.9228C82.3435 23.9228 82.1564 23.9228 82.1137 23.4275C82.0696 22.9088 82.1466 22.2344 82.3423 21.4227C82.5423 20.5888 82.8321 19.663 83.2039 18.6713C83.5825 17.662 83.9629 16.6978 84.3333 15.806C84.7185 14.879 85.0497 14.1083 85.3448 13.4498C85.6391 12.7943 85.8235 12.3679 85.8937 12.1814C86.1292 11.6415 86.0432 11.1092 85.645 10.6417C85.2793 10.2132 84.79 9.91284 84.1914 9.74889C83.6066 9.58863 82.9691 9.57936 82.3043 9.72122C81.5926 9.87349 81.0286 10.285 80.6276 10.9437C80.2741 11.522 79.8144 12.4306 79.261 13.644C78.7058 14.8603 78.1693 16.2108 77.6665 17.6579C77.3614 18.5355 77.0798 19.4277 76.8251 20.3259C76.4012 21.8197 75.5291 23.1476 74.3268 24.1301C73.8963 24.4819 73.4433 24.8134 72.9723 25.1215C72.7641 25.258 72.5542 25.3843 72.344 25.5001C72.2774 25.5367 72.208 25.4563 72.254 25.3961C72.6173 24.9176 72.9747 24.4006 73.3231 23.8482C74.0417 22.7106 74.6961 21.3483 75.2688 19.7992C75.8742 18.159 76.2541 16.6629 76.3978 15.352C76.5425 14.0252 76.4923 12.8673 76.2474 11.9107C75.9943 10.9229 75.5517 10.1458 74.931 9.60104C74.2886 9.03806 73.4945 8.75256 72.5715 8.75256C71.483 8.75256 70.4825 9.04058 69.5982 9.60862C68.994 9.99671 68.4341 10.4302 67.9269 10.9029C67.8848 10.9421 67.85 10.9375 67.8193 10.889C67.7066 10.7094 67.5549 10.5404 67.3642 10.3822C66.935 10.0276 66.4188 9.79025 65.8287 9.6766C65.2367 9.56432 64.6352 9.60494 64.0487 9.79751C63.4213 10.0036 62.9534 10.4294 62.6577 11.0639C62.0903 12.286 61.4913 13.7124 60.8768 15.3034C60.264 16.8921 59.6665 18.5527 59.0999 20.2395C59.0373 20.4266 58.9749 20.6137 58.9127 20.8008C58.4345 22.2393 57.5364 23.5015 56.3339 24.4248C56.017 24.6684 55.689 24.901 55.3522 25.1215C55.1439 25.258 54.9339 25.3843 54.7233 25.5002C54.6568 25.5368 54.5875 25.4565 54.6335 25.3961C54.9967 24.918 55.3539 24.4012 55.7023 23.8484C56.4206 22.7116 57.0754 21.3495 57.6487 19.7992C58.2538 18.1588 58.6336 16.6627 58.7775 15.352C58.9224 14.0246 58.872 12.8667 58.6272 11.9107C58.3745 10.9233 57.9319 10.1462 57.3109 9.60104C56.6683 9.03795 55.8742 8.75256 54.9518 8.75256C53.8624 8.75256 52.8622 9.04058 51.978 9.60841C51.3734 9.99671 50.8136 10.4302 50.3067 10.9025C50.2647 10.9418 50.23 10.9373 50.1994 10.8885C50.0866 10.7093 49.9345 10.5403 49.7435 10.3824C49.3149 10.0278 48.7985 9.79046 48.2077 9.6766C47.6157 9.56411 47.0138 9.60504 46.4285 9.79751C45.8018 10.0031 45.3337 10.429 45.0367 11.0641C44.4692 12.2881 43.8701 13.7144 43.2566 15.3035C42.6809 16.7964 42.121 18.346 41.5898 19.9142C41.1889 21.0979 40.5889 22.0487 39.6933 22.9198C39.462 23.1447 39.2366 23.3483 39.0189 23.5286C38.626 23.8545 38.3722 23.9228 38.2282 23.9228C38.1275 23.9228 37.94 23.9228 37.8981 23.4272C37.8538 22.9097 37.9306 22.2354 38.1263 21.4227C38.326 20.5892 38.616 19.6634 38.9879 18.6713C39.3624 17.6723 39.7427 16.7081 40.1175 15.806C40.4959 14.8965 40.8363 14.1036 41.1291 13.4498C41.429 12.7814 41.6084 12.3662 41.6771 12.1812C41.9138 11.6415 41.8278 11.1092 41.4293 10.6417C41.0625 10.2123 40.5647 9.91169 39.9486 9.74784C39.3471 9.58852 38.7111 9.57958 38.0623 9.72164C37.3678 9.87433 36.812 10.2856 36.4117 10.9425C36.3316 11.0726 36.2481 11.216 36.1596 11.3753C36.1282 11.4323 36.0431 11.4195 36.0296 11.3559C35.9534 10.9971 35.8305 10.658 35.6624 10.3428C35.4105 9.87317 35.0375 9.48771 34.5541 9.19706C34.063 8.9021 33.4396 8.75256 32.7015 8.75256C30.9609 8.75256 29.1956 9.55579 27.4549 11.1402C25.7459 12.696 24.3294 15.178 23.2435 18.5192C22.734 20.1303 22.4352 21.6194 22.355 22.9455C22.2743 24.2876 22.3827 25.4459 22.6765 26.3875C22.9792 27.3585 23.4626 28.1251 24.1142 28.6655C24.7858 29.224 25.593 29.5073 26.513 29.5073C27.1937 29.5073 27.8431 29.3899 28.4433 29.1579C29.0251 28.9332 29.5644 28.6443 30.0463 28.2996C30.4172 28.0345 30.7624 27.7345 31.076 27.4047C31.2996 27.1696 31.6935 27.2646 31.7857 27.5755C31.8887 27.924 32.0325 28.234 32.2163 28.5038C32.671 29.1695 33.3907 29.5073 34.355 29.5073C35.4234 29.5073 36.503 29.1066 37.5636 28.3164C38.058 27.9485 38.541 27.5473 39.009 27.1157C39.1142 27.0188 39.2799 27.1226 39.2387 27.2596C38.9654 28.1683 38.7201 29.0103 38.4992 29.8003C38.1267 31.1283 37.8237 32.272 37.5985 33.2001C37.2971 34.4449 37.2582 34.7833 37.2582 34.9393C37.2582 35.7025 37.4952 36.353 37.9632 36.8734C38.4151 37.3738 38.9388 37.7328 39.5214 37.9406C39.9048 38.0767 40.279 38.1456 40.6329 38.1456C40.8288 38.1456 41.022 38.1244 41.2077 38.0826C41.6251 37.988 42.1551 37.7097 42.3094 36.9201L42.312 36.9047C42.3734 36.489 42.4904 35.9257 42.6602 35.2303C42.8362 34.5087 43.0503 33.6873 43.2965 32.7887C43.5394 31.8951 43.8173 30.8996 44.1452 29.7453C44.2966 29.2119 44.4592 28.653 44.632 28.0723C44.6673 27.9542 44.8268 27.9354 44.8884 28.0421C44.9653 28.1749 45.0508 28.3045 45.1451 28.4306C45.6766 29.143 46.5246 29.505 47.6659 29.5072C47.8951 29.5174 48.1251 29.5227 48.3501 29.5227H48.3504C50.0284 29.5227 51.6047 29.2346 53.0347 28.6667C54.4011 28.1248 55.6529 27.4623 56.7682 26.6956C56.8774 26.6203 57.0206 26.725 56.9821 26.8522C56.662 27.9068 56.3731 28.8939 56.1194 29.8004C55.7448 31.1376 55.4417 32.2814 55.2183 33.2001C54.9173 34.4471 54.8786 34.7846 54.8786 34.9392C54.8786 35.7022 55.1155 36.3526 55.5835 36.8733C56.0354 37.374 56.5594 37.733 57.142 37.9405C57.5254 38.0764 57.8988 38.1455 58.253 38.1455C58.4487 38.1455 58.6424 38.1243 58.8285 38.0825C59.2461 37.9879 59.7756 37.7095 59.9302 36.92L59.9328 36.9045C59.9939 36.4874 60.1113 35.9241 60.2811 35.2301C60.4569 34.5089 60.6705 33.6877 60.9167 32.7887C61.1611 31.8912 61.439 30.8958 61.7658 29.7453C61.9175 29.2109 62.08 28.6519 62.2524 28.072C62.2876 27.9538 62.4472 27.9349 62.509 28.0415C62.5857 28.1746 62.6716 28.3043 62.7659 28.4305C63.2969 29.1428 64.145 29.505 65.2866 29.5072C65.5158 29.5174 65.7457 29.5227 65.9708 29.5227H65.971C67.6487 29.5227 69.225 29.2346 70.6554 28.6667C72.2563 28.032 73.7031 27.2327 74.9559 26.291C75.1689 26.1308 75.3765 25.9687 75.5786 25.805C75.6713 25.73 75.8094 25.7974 75.8073 25.9165C75.8066 25.9702 75.8061 26.0233 75.8061 26.076C75.8061 27.0777 76.0165 27.8945 76.4321 28.5037C76.8868 29.1694 77.6067 29.5072 78.5708 29.5072C79.6374 29.5072 80.7242 29.1072 81.8004 28.3182C82.8236 27.5688 83.7897 26.6827 84.6721 25.6845C85.5425 24.7004 86.3073 23.7198 86.9457 22.7699C87.5911 21.8083 88.0257 21.1508 88.2738 20.7595C88.4721 20.4475 88.4778 20.1006 88.2901 19.8083ZM33.836 14.6842C33.7598 15.3858 33.6113 16.1885 33.395 17.0696C33.1783 17.9474 32.8808 18.8723 32.5111 19.8189C32.1425 20.7608 31.7498 21.6467 31.3436 22.4522C30.9453 23.2388 30.5426 23.9098 30.1464 24.4468C29.7601 24.9692 29.3973 25.3584 29.0674 25.604C28.8231 25.7862 28.6882 25.8059 28.6416 25.8059C28.6202 25.8059 28.6021 25.8021 28.5823 25.793C28.5375 25.7731 28.3851 25.6704 28.3057 25.1903C28.2312 24.7512 28.2243 24.1843 28.2846 23.5053C28.3459 22.8147 28.4863 22.0216 28.7016 21.1478C28.9168 20.2733 29.2143 19.3484 29.5857 18.3988C29.9594 17.4447 30.3523 16.5586 30.7541 15.7647C31.1505 14.9788 31.5536 14.2995 31.9531 13.746C32.3373 13.2122 32.6996 12.8168 33.0291 12.571C33.2734 12.3892 33.4087 12.3695 33.4556 12.3695C33.4776 12.3695 33.4957 12.3733 33.5129 12.3809C33.5595 12.4021 33.7193 12.5089 33.817 12.9953C33.9043 13.4271 33.9106 13.9955 33.836 14.6842ZM52.9002 14.7262C52.7771 15.4182 52.5816 16.2158 52.319 17.0964C52.054 17.9801 51.7163 18.9074 51.3195 19.8439C50.8852 20.7948 50.4367 21.682 49.9871 22.4805C49.5402 23.2724 49.0967 23.9532 48.6689 24.504C48.2528 25.0409 47.8666 25.4379 47.5204 25.685C47.2606 25.8709 47.117 25.8909 47.0674 25.8909C47.044 25.8909 47.0252 25.8872 47.0053 25.8782C46.9623 25.8589 46.8172 25.7594 46.7534 25.2862C46.6949 24.8555 46.7262 24.2869 46.8465 23.5965C46.9692 22.8889 47.1649 22.0848 47.428 21.206C47.6889 20.3309 48.0264 19.4037 48.431 18.4502C48.8327 17.5022 49.2707 16.6194 49.7333 15.8265C50.1982 15.031 50.6491 14.3571 51.074 13.824C51.4903 13.301 51.8777 12.9095 52.2251 12.661C52.486 12.4748 52.63 12.4547 52.6795 12.4547C52.7029 12.4547 52.7222 12.4586 52.7396 12.4667C52.7829 12.486 52.9285 12.5862 52.9924 13.0591C53.0507 13.491 53.0196 14.052 52.9002 14.7262ZM70.5205 14.7261C70.3974 15.4178 70.2017 16.2155 69.9391 17.0964C69.6754 17.9757 69.338 18.9031 68.9396 19.8439C68.506 20.7932 68.0574 21.6803 67.6067 22.4805C67.1607 23.2718 66.7171 23.9527 66.2894 24.504C65.8723 25.0412 65.4863 25.4383 65.141 25.6849C64.8809 25.8709 64.7369 25.8909 64.687 25.8909C64.6641 25.8909 64.6454 25.8872 64.6254 25.8782C64.5824 25.8589 64.4369 25.759 64.3739 25.2863C64.3149 24.8536 64.3463 24.2853 64.4669 23.5965C64.5898 22.8864 64.7852 22.0823 65.0482 21.206C65.3091 20.3314 65.6462 19.4043 66.0507 18.4503C66.4516 17.5045 66.8898 16.6219 67.354 15.8264C67.8171 15.0318 68.2683 14.3582 68.6948 13.8238C69.1091 13.302 69.4962 12.9109 69.8455 12.6611C70.1065 12.4748 70.2502 12.4547 70.2999 12.4547C70.323 12.4547 70.3423 12.4586 70.3598 12.4667C70.4028 12.486 70.5481 12.5862 70.6125 13.0591C70.6708 13.4923 70.6399 14.0531 70.5205 14.7261Z" fill="#FD6250"/>
<path d="M88.3131 50.8034C83.6057 54.9246 79.4305 55.1831 74.4163 51.4917C72.1107 49.7964 70.0456 47.7762 67.734 46.09C65.9454 44.7854 64.0547 43.4898 62.0135 42.6842C58.4817 41.2864 54.8986 41.7614 51.673 43.7212C49.4817 45.0528 47.4857 46.7122 45.4536 48.2933C45.1679 48.5127 44.9546 48.6331 44.7381 48.624C44.5216 48.6331 44.3083 48.5127 44.0227 48.2933C41.9907 46.7122 39.9947 45.0528 37.8033 43.7212C34.581 41.7614 30.9948 41.2863 27.4628 42.6842C25.4216 43.4898 23.5309 44.7854 21.7423 46.09C19.4307 47.7762 17.3657 49.7964 15.06 51.4917C10.046 55.1831 5.87074 54.9246 1.16333 50.8034C0.775553 50.4636 0.387777 50.124 0 49.7874C0.700418 53.6651 2.21248 57.143 4.44286 60.2994C7.28957 64.3274 11.023 67.2131 15.7093 68.7974C26.6631 72.5006 40.4998 67.3394 44.7381 57.5969C48.9765 67.3393 62.8132 72.5006 73.7669 68.7974C78.4533 67.2131 82.1867 64.3274 85.0334 60.2994C87.2637 57.1431 88.7757 53.6651 89.4762 49.7874C89.0886 50.124 88.7008 50.4636 88.3131 50.8034Z" fill="#FD6250"/>
</svg>
