<svg width="28" height="39" viewBox="0 0 28 39" fill="none" xmlns="http://www.w3.org/2000/svg">
<path d="M8.07 24.05V31H6.93V26.24L4.81 31H4.02L1.89 26.24V31H0.75V24.05H1.98L4.42 29.5L6.85 24.05H8.07ZM14.6184 28.11C14.6184 28.3167 14.605 28.5033 14.5784 28.67H10.3684C10.4017 29.11 10.565 29.4633 10.8584 29.73C11.1517 29.9967 11.5117 30.13 11.9384 30.13C12.5517 30.13 12.985 29.8733 13.2384 29.36H14.4684C14.3017 29.8667 13.9984 30.2833 13.5584 30.61C13.125 30.93 12.585 31.09 11.9384 31.09C11.4117 31.09 10.9384 30.9733 10.5184 30.74C10.105 30.5 9.77836 30.1667 9.53836 29.74C9.30503 29.3067 9.18836 28.8067 9.18836 28.24C9.18836 27.6733 9.30169 27.1767 9.52836 26.75C9.76169 26.3167 10.085 25.9833 10.4984 25.75C10.9184 25.5167 11.3984 25.4 11.9384 25.4C12.4584 25.4 12.9217 25.5133 13.3284 25.74C13.735 25.9667 14.0517 26.2867 14.2784 26.7C14.505 27.1067 14.6184 27.5767 14.6184 28.11ZM13.4284 27.75C13.4217 27.33 13.2717 26.9933 12.9784 26.74C12.685 26.4867 12.3217 26.36 11.8884 26.36C11.495 26.36 11.1584 26.4867 10.8784 26.74C10.5984 26.9867 10.4317 27.3233 10.3784 27.75H13.4284ZM18.5202 25.4C18.9536 25.4 19.3402 25.49 19.6802 25.67C20.0269 25.85 20.2969 26.1167 20.4902 26.47C20.6836 26.8233 20.7802 27.25 20.7802 27.75V31H19.6502V27.92C19.6502 27.4267 19.5269 27.05 19.2802 26.79C19.0336 26.5233 18.6969 26.39 18.2702 26.39C17.8436 26.39 17.5036 26.5233 17.2502 26.79C17.0036 27.05 16.8802 27.4267 16.8802 27.92V31H15.7402V25.49H16.8802V26.12C17.0669 25.8933 17.3036 25.7167 17.5902 25.59C17.8836 25.4633 18.1936 25.4 18.5202 25.4ZM27.2244 25.49V31H26.0844V30.35C25.9044 30.5767 25.6677 30.7567 25.3744 30.89C25.0877 31.0167 24.781 31.08 24.4544 31.08C24.021 31.08 23.631 30.99 23.2844 30.81C22.9444 30.63 22.6744 30.3633 22.4744 30.01C22.281 29.6567 22.1844 29.23 22.1844 28.73V25.49H23.3144V28.56C23.3144 29.0533 23.4377 29.4333 23.6844 29.7C23.931 29.96 24.2677 30.09 24.6944 30.09C25.121 30.09 25.4577 29.96 25.7044 29.7C25.9577 29.4333 26.0844 29.0533 26.0844 28.56V25.49H27.2244ZM25.7644 24.01L23.5544 25.1V24.26L25.7644 23.04V24.01Z" fill="#5E6061"/>
<rect x="2" width="24" height="24" fill="white"/>
<line x1="7" y1="11.7999" x2="21" y2="11.7999" stroke="#5E6061" stroke-width="2" stroke-linecap="round" stroke-linejoin="round"/>
<line x1="11" y1="16.6001" x2="21" y2="16.6001" stroke="#5E6061" stroke-width="2" stroke-linecap="round" stroke-linejoin="round"/>
<line x1="7" y1="7" x2="21" y2="7" stroke="#5E6061" stroke-width="2" stroke-linecap="round" stroke-linejoin="round"/>
</svg>
