<svg width="75" height="92" viewBox="0 0 75 92" fill="none" xmlns="http://www.w3.org/2000/svg">
<rect x="6" y="50" width="52" height="42" fill="#E4D2F7"/>
<path d="M53.125 44.762H44.1875L52.8281 30.6995L56.8906 24.0745C57.1046 23.7219 57.1705 23.2989 57.0739 22.8979C56.9773 22.4969 56.7261 22.1504 56.375 21.9339L49.75 17.8714L39.0625 11.2464L32.3906 7.26199C32.0592 7.02891 31.6503 6.93368 31.25 6.99636C31.0502 7.04413 30.8619 7.13083 30.6956 7.25148C30.5294 7.37213 30.3886 7.52436 30.2813 7.69949L26.2188 14.3245L12.3125 36.9495H7C5.14475 36.9536 3.36667 37.6924 2.05481 39.0043C0.742951 40.3162 0.00412737 42.0942 0 43.9495V86.9495C0 87.3639 0.16462 87.7613 0.457646 88.0543C0.750672 88.3474 1.1481 88.512 1.5625 88.512H53.125C53.5394 88.512 53.9368 88.3474 54.2299 88.0543C54.5229 87.7613 54.6875 87.3639 54.6875 86.9495V46.3245C54.6875 45.9101 54.5229 45.5127 54.2299 45.2196C53.9368 44.9266 53.5394 44.762 53.125 44.762ZM51 27.6526L50.8594 27.5745L50.5938 27.3245L50.1719 26.8401L50 26.512C49.875 26.3245 49.7812 26.137 49.6719 25.9495L49.5312 25.6526C49.4067 25.381 49.3074 25.0986 49.2344 24.8089C49.157 24.4964 49.1099 24.1772 49.0937 23.8557C49.086 23.7517 49.086 23.6473 49.0937 23.5432C49.0785 23.3195 49.0785 23.0951 49.0937 22.8714C49.0863 22.7569 49.0863 22.6421 49.0937 22.5276C49.1217 22.314 49.1741 22.1043 49.25 21.9026C49.2771 21.7852 49.3136 21.6703 49.3594 21.5589C49.3594 21.5589 49.3594 21.4339 49.3594 21.3714L53.2969 23.7932L51 27.6526ZM46.5781 20.1839C46.4844 20.387 46.4063 20.5901 46.3281 20.8089C46.25 21.0276 46.1562 21.4339 46.0938 21.7464C46.0422 21.9465 46.0056 22.1502 45.9844 22.3557C45.9615 22.7043 45.9615 23.054 45.9844 23.4026C45.9844 23.5745 45.9844 23.762 45.9844 23.9339C46.0063 24.4235 46.0744 24.9101 46.1875 25.387C46.1802 25.4178 46.1802 25.4499 46.1875 25.4807C46.2998 25.9872 46.4675 26.4797 46.6875 26.9495C46.6875 27.1057 46.8437 27.2464 46.9219 27.4026C47 27.5589 47.25 28.0276 47.4531 28.3245C47.5694 28.4925 47.6945 28.6542 47.8281 28.8089C48.0342 29.0647 48.2532 29.3098 48.4844 29.5432L48.9688 29.9807C49.1019 30.1139 49.2428 30.2391 49.3906 30.3557L40.5156 44.762H36.6719L36.7812 44.6214C37.1128 44.2416 37.4108 43.8338 37.6719 43.4026C37.8389 43.1437 37.9852 42.8721 38.1094 42.5901L38.2188 42.4026C38.3125 42.1995 38.375 41.9964 38.4531 41.7932C38.5312 41.5901 38.5781 41.4964 38.625 41.3401C38.6719 41.1839 38.625 41.1214 38.7031 41.012C39.2028 39.3242 39.2028 37.5279 38.7031 35.8401C38.5908 35.4826 38.4551 35.1329 38.2969 34.7932C37.5611 33.0101 36.2673 31.5135 34.6094 30.5276C33.5579 29.8859 32.3903 29.4576 31.1733 29.2673C29.9562 29.0771 28.7136 29.1285 27.5165 29.4187C26.3193 29.709 25.1911 30.2323 24.1963 30.9587C23.2015 31.6852 22.3596 32.6006 21.7188 33.6526C21.5156 33.9964 21.3125 34.3557 21.1094 34.7776C20.905 35.2842 20.743 35.8068 20.625 36.3401C20.625 36.4964 20.625 36.6526 20.5312 36.8089C20.4614 37.1596 20.4144 37.5145 20.3906 37.8714C20.3906 38.0432 20.3906 38.2307 20.3906 38.4026C20.3906 38.5745 20.3906 39.1057 20.3906 39.4651V39.9339C20.4627 40.4259 20.5724 40.9117 20.7188 41.387C20.8793 41.8633 21.0724 42.3279 21.2969 42.7776L21.5313 43.1839C21.7004 43.492 21.8882 43.7894 22.0938 44.0745L22.4219 44.4964L22.6719 44.8245H11.1875L11.3438 44.5745L28.0312 17.2932L28.1875 17.3714C28.5482 17.5349 28.9187 17.6758 29.2969 17.7932H29.4844C29.9255 17.9132 30.3745 18.002 30.8281 18.0589H31.25C31.4688 18.0589 31.6719 18.0589 31.8906 18.0589H32.2812H32.6563C33.0344 18.0244 33.4101 17.967 33.7812 17.887H33.9688C34.3951 17.777 34.8129 17.636 35.2188 17.4651L35.5313 17.3245C35.8377 17.1813 36.1351 17.0195 36.4219 16.8401L36.75 16.637C37.1041 16.3985 37.4385 16.132 37.75 15.8401C38.0763 15.524 38.3792 15.1845 38.6563 14.8245L38.75 14.7151L46.8125 19.6526C46.7171 19.8216 46.6386 19.9995 46.5781 20.1839ZM26.4219 43.8401C25.1331 43.0583 24.1703 41.837 23.7109 40.4014C23.2515 38.9657 23.3264 37.4124 23.9219 36.0276C24.0625 35.7464 24.2031 35.4807 24.3594 35.2151C24.7887 34.5146 25.352 33.9057 26.0169 33.4231C26.6818 32.9405 27.4353 32.5937 28.2344 32.4026C28.7108 32.2944 29.1991 32.2471 29.6875 32.262C30.8425 32.2611 31.9744 32.5861 32.9531 33.1995C34.0581 33.8486 34.9198 34.842 35.4062 36.0276C35.5 36.262 35.5938 36.4964 35.6719 36.7307C36.0307 37.9419 36.0141 39.2334 35.6242 40.435C35.2344 41.6366 34.4896 42.6918 33.488 43.4616C32.4864 44.2314 31.2751 44.6796 30.0137 44.7472C28.7522 44.8147 27.5 44.4985 26.4219 43.8401ZM32.0938 10.6526L36.0156 13.0745L35.9062 13.2151L35.6562 13.4807C35.5021 13.6296 35.3405 13.7704 35.1719 13.9026L34.875 14.1214C34.6912 14.2457 34.4979 14.3554 34.2969 14.4495L34.0312 14.5901C33.4343 14.8562 32.7933 15.0098 32.1406 15.0432H31.875C31.6357 15.0585 31.3956 15.0585 31.1562 15.0432H30.8438C30.6214 15.0006 30.4022 14.9432 30.1875 14.8714L29.8594 14.762L29.6875 14.6057L32.0938 10.6526ZM3.125 43.9495C3.125 42.9218 3.53326 41.9361 4.25996 41.2094C4.98667 40.4827 5.97229 40.0745 7 40.0745H10.4062L7.53125 44.762H3.125V43.9495ZM3.125 85.387V47.887H51.5625V58.8245H40.2344C38.266 58.8245 36.3782 59.6064 34.9863 60.9983C33.5944 62.3902 32.8125 64.278 32.8125 66.2464V67.0276C32.8125 68.996 33.5944 70.8838 34.9863 72.2757C36.3782 73.6675 38.266 74.4495 40.2344 74.4495H51.5625V85.387H3.125ZM51.5625 71.3245H40.2344C39.0948 71.3245 38.0019 70.8718 37.196 70.066C36.3902 69.2601 35.9375 68.1672 35.9375 67.0276V66.2464C35.9375 65.1068 36.3902 64.0138 37.196 63.208C38.0019 62.4022 39.0948 61.9495 40.2344 61.9495H51.5625V71.3245Z" fill="#3F3F3F"/>
<path d="M26.8198 0.149096L14.3218 18.8962L16.9219 20.6297L29.42 1.88253L26.8198 0.149096Z" fill="#3F3F3F"/>
<path d="M59.643 0.149936L50.2651 14.2168L52.8653 15.9502L62.2432 1.88337L59.643 0.149936Z" fill="#3F3F3F"/>
<path d="M72.1353 9.54262L54.9443 36.1057L57.5679 37.8036L74.7589 11.2405L72.1353 9.54262Z" fill="#3F3F3F"/>
<path d="M45.2332 -7.57948e-05L40.5874 7.83398L43.2749 9.42773L47.9207 1.59367L45.2332 -7.57948e-05Z" fill="#3F3F3F"/>
<path d="M43.75 69.762C45.4759 69.762 46.875 68.3629 46.875 66.637C46.875 64.9111 45.4759 63.512 43.75 63.512C42.0241 63.512 40.625 64.9111 40.625 66.637C40.625 68.3629 42.0241 69.762 43.75 69.762Z" fill="#3F3F3F"/>
<circle cx="29.5" cy="38.5" r="6.5" fill="#DFF0F8"/>
</svg>
