<svg width="222" height="60" viewBox="0 0 222 60" fill="none" xmlns="http://www.w3.org/2000/svg">
<path fill-rule="evenodd" clip-rule="evenodd" d="M150.104 0V44.6906C154.471 44.9029 158.828 45.1469 163.177 45.4278V54.1371C155.683 53.6505 148.163 53.2642 140.614 52.9871V0H150.104ZM118.305 52.4643C115.762 52.4437 113.214 52.4245 110.663 52.4245C110.324 52.4233 109.985 52.4257 109.646 52.428H109.646H109.646H109.645H109.645C109.37 52.43 109.095 52.4319 108.82 52.4319V0.00214092H131.379V8.69964H118.306V23.3773H129.656V32.0645H118.305V52.4643ZM181.641 55.5289V0.00214092H172.192V54.7504C175.344 54.9936 178.497 55.2546 181.641 55.5289ZM188.79 56.1857C191.87 56.4843 194.949 56.8049 198.02 57.1367L204.801 40.3934L211.246 58.6811C214.553 59.0954 217.859 59.5304 221.154 59.9845L209.854 27.9155L221.158 0.00214092H211.584L211.485 0.13926L205.379 15.2187L200.018 0.00435252H190.565L200.324 27.6973L188.791 56.1857H188.79ZM81.3286 52.9553C84.476 52.8433 87.6263 52.7489 90.781 52.6722V8.70116H99.6127V0.00439451H72.4955V8.70116H81.3286V52.9553ZM9.06389 25.7293V58.8112C6.05758 59.1923 3.05201 59.586 0.0567645 60.0003H0V0.00393172H9.4546L21.527 34.2712V0.00393172H30.5931V56.3821C27.1378 56.7257 23.6922 57.0891 20.2516 57.4754L9.06389 25.7293ZM63.3844 8.69895V0.00292967H40.8239V55.4412C48.33 54.7932 55.8448 54.2499 63.366 53.8112V45.1071C59.0047 45.3607 54.6523 45.6526 50.3102 45.9777V32.0682H61.6609V23.3759H50.3102V8.69895H63.3844Z" fill="#B81D24"/>
</svg>
