<svg width="100" height="100" viewBox="0 0 100 100" fill="none" xmlns="http://www.w3.org/2000/svg">
<path d="M32.75 47C38.6871 47 43.5 42.0751 43.5 36C43.5 29.9249 38.6871 25 32.75 25C26.8129 25 22 29.9249 22 36C22 42.0751 26.8129 47 32.75 47Z" fill="#E4D2F7"/>
<path d="M72.25 71C74.0449 71 75.5 69.433 75.5 67.5C75.5 65.567 74.0449 64 72.25 64C70.4551 64 69 65.567 69 67.5C69 69.433 70.4551 71 72.25 71Z" fill="#E4D2F7"/>
<rect x="34" y="39" width="38" height="27" rx="4" fill="#DFF0F8"/>
<path d="M70 40.8995C70 39.6001 69.4838 38.3539 68.565 37.435C67.6461 36.5162 66.3999 36 65.1005 36H35.8995C34.6001 36 33.3539 36.5162 32.435 37.435C31.5162 38.3539 31 39.6001 31 40.8995V58.7337C31 60.0331 31.5162 61.2793 32.435 62.1981C33.3539 63.117 34.6001 63.6332 35.8995 63.6332H65.1005C66.3999 63.6332 67.6461 63.117 68.565 62.1981C69.4838 61.2793 70 60.0331 70 58.7337V40.8995ZM35.8505 37.9598H65.1005C65.8802 37.9598 66.6279 38.2695 67.1792 38.8208C67.7305 39.3721 68.0402 40.1198 68.0402 40.8995V42.1734H32.9598V40.8995C32.9598 40.1198 33.2695 39.3721 33.8208 38.8208C34.3721 38.2695 35.1198 37.9598 35.8995 37.9598H35.8505ZM68.0402 44.1822V47.1709H32.9598V44.1822H68.0402ZM65.1005 61.6734H35.8995C35.1198 61.6734 34.3721 61.3636 33.8208 60.8123C33.2695 60.261 32.9598 59.5133 32.9598 58.7337V49.1307H68.0402V58.7337C68.0402 59.5133 67.7305 60.261 67.1792 60.8123C66.6279 61.3636 65.8802 61.6734 65.1005 61.6734Z" fill="#3F3F3F"/>
<path d="M62.6507 54.5201H57.9472C57.6873 54.5201 57.4381 54.6234 57.2543 54.8071C57.0705 54.9909 56.9673 55.2402 56.9673 55.5C56.9673 55.7599 57.0705 56.0092 57.2543 56.1929C57.4381 56.3767 57.6873 56.4799 57.9472 56.4799H62.6997C62.9596 56.4799 63.2088 56.3767 63.3926 56.1929C63.5764 56.0092 63.6796 55.7599 63.6796 55.5C63.6796 55.2402 63.5764 54.9909 63.3926 54.8071C63.2088 54.6234 62.9596 54.5201 62.6997 54.5201H62.6507Z" fill="#3F3F3F"/>
</svg>
