<svg width="103" height="102" viewBox="0 0 103 102" fill="none" xmlns="http://www.w3.org/2000/svg">
<path d="M56 102C81.9574 102 103 81.4051 103 56C103 30.5949 81.9574 10 56 10C30.0426 10 9 30.5949 9 56C9 81.4051 30.0426 102 56 102Z" fill="#E4D2F7"/>
<path d="M16.4536 19.6464L16.0764 19.2693L15.7243 19.67C9.14777 27.1572 5.2 36.8733 5.2 47.5C5.2 70.8761 24.1239 89.8 47.5 89.8C58.1297 89.8 67.8437 85.7503 75.3271 79.2782L75.7337 78.9266L75.3536 78.5464L68.2536 71.4464C67.3488 70.5417 67.3488 69.0583 68.2536 68.1536C69.1583 67.2488 70.6417 67.2488 71.5464 68.1536L78.6464 75.2536L79.0236 75.6307L79.3757 75.23C85.9522 67.7428 89.9 58.0267 89.9 47.4C89.9 24.1246 70.9769 5.1 47.6 5.1C36.9703 5.1 27.2563 9.14974 19.7729 15.6218L19.3663 15.9735L19.7464 16.3536L26.8464 23.4536C27.7459 24.353 27.7511 25.8245 26.8621 26.7306C26.334 27.1652 25.7504 27.4 25.2 27.4C24.6039 27.4 24.0413 27.2342 23.5536 26.7464L16.4536 19.6464ZM0.5 47.5C0.5 21.5761 21.5761 0.5 47.5 0.5C73.4239 0.5 94.5 21.5761 94.5 47.5C94.5 73.4239 73.4239 94.5 47.5 94.5C21.5761 94.5 0.5 73.4239 0.5 47.5Z" fill="#3F3F3F" stroke="white"/>
<path d="M31.1303 37C31.1303 34.7333 31.8136 32.9333 33.1803 31.6C34.5469 30.2333 36.2969 29.55 38.4303 29.55C40.5636 29.55 42.3136 30.2333 43.6803 31.6C45.0469 32.9333 45.7303 34.7333 45.7303 37C45.7303 39.3 45.0469 41.1333 43.6803 42.5C42.3136 43.8333 40.5636 44.5 38.4303 44.5C36.2969 44.5 34.5469 43.8333 33.1803 42.5C31.8136 41.1333 31.1303 39.3 31.1303 37ZM60.3303 30.1L40.0803 65H35.5803L55.8303 30.1H60.3303ZM38.4303 32.35C37.2969 32.35 36.3969 32.75 35.7303 33.55C35.0969 34.3167 34.7803 35.4667 34.7803 37C34.7803 38.5333 35.0969 39.7 35.7303 40.5C36.3969 41.3 37.2969 41.7 38.4303 41.7C39.5636 41.7 40.4636 41.3 41.1303 40.5C41.7969 39.6667 42.1303 38.5 42.1303 37C42.1303 35.4667 41.7969 34.3167 41.1303 33.55C40.4636 32.75 39.5636 32.35 38.4303 32.35ZM50.2803 58.1C50.2803 55.8 50.9636 53.9833 52.3303 52.65C53.6969 51.2833 55.4469 50.6 57.5803 50.6C59.7136 50.6 61.4469 51.2833 62.7803 52.65C64.1469 53.9833 64.8303 55.8 64.8303 58.1C64.8303 60.3667 64.1469 62.1833 62.7803 63.55C61.4469 64.9167 59.7136 65.6 57.5803 65.6C55.4469 65.6 53.6969 64.9333 52.3303 63.6C50.9636 62.2333 50.2803 60.4 50.2803 58.1ZM57.5303 53.45C56.3969 53.45 55.4969 53.85 54.8303 54.65C54.1636 55.4167 53.8303 56.5667 53.8303 58.1C53.8303 59.6 54.1636 60.75 54.8303 61.55C55.4969 62.3167 56.3969 62.7 57.5303 62.7C58.6636 62.7 59.5636 62.3167 60.2303 61.55C60.8969 60.75 61.2303 59.6 61.2303 58.1C61.2303 56.5667 60.8969 55.4167 60.2303 54.65C59.5636 53.85 58.6636 53.45 57.5303 53.45Z" fill="#3F3F3F"/>
</svg>
