<svg width="103" height="103" viewBox="0 0 103 103" fill="none" xmlns="http://www.w3.org/2000/svg">
<path d="M56 103C81.9574 103 103 82.4051 103 57C103 31.5949 81.9574 11 56 11C30.0426 11 9 31.5949 9 57C9 82.4051 30.0426 103 56 103Z" fill="#DFF0F8"/>
<path d="M16.4536 20.1464L16.0764 19.7693L15.7243 20.17C9.14777 27.6572 5.2 37.3733 5.2 48C5.2 71.3761 24.1239 90.3 47.5 90.3C58.1297 90.3 67.8437 86.2503 75.3271 79.7782L75.7337 79.4266L75.3536 79.0464L68.2536 71.9464C67.3488 71.0417 67.3488 69.5583 68.2536 68.6536C69.1583 67.7488 70.6417 67.7488 71.5464 68.6536L78.6464 75.7536L79.0236 76.1307L79.3757 75.73C85.9522 68.2428 89.9 58.5267 89.9 47.9C89.9 24.6246 70.9769 5.6 47.6 5.6C36.9703 5.6 27.2563 9.64974 19.7729 16.1218L19.3663 16.4735L19.7464 16.8536L26.8464 23.9536C27.7459 24.853 27.7511 26.3245 26.8621 27.2306C26.334 27.6652 25.7504 27.9 25.2 27.9C24.6039 27.9 24.0413 27.7342 23.5536 27.2464L16.4536 20.1464ZM0.5 48C0.5 22.0761 21.5761 1 47.5 1C73.4239 1 94.5 22.0761 94.5 48C94.5 73.9239 73.4239 95 47.5 95C21.5761 95 0.5 73.9239 0.5 48Z" fill="#3F3F3F" stroke="white"/>
<path d="M58.7982 56.45C58.7982 58.05 58.3982 59.5833 57.5982 61.05C56.7982 62.4833 55.6149 63.6833 54.0482 64.65C52.5149 65.6167 50.6649 66.1667 48.4982 66.3V70.35H45.7982V66.3C42.7649 66.0333 40.2982 65.0667 38.3982 63.4C36.4982 61.7 35.5316 59.55 35.4982 56.95H40.3482C40.4816 58.35 40.9982 59.5667 41.8982 60.6C42.8316 61.6333 44.1316 62.2833 45.7982 62.55V50.05C43.5649 49.4833 41.7649 48.9 40.3982 48.3C39.0316 47.7 37.8649 46.7667 36.8982 45.5C35.9316 44.2333 35.4482 42.5333 35.4482 40.4C35.4482 37.7 36.3816 35.4667 38.2482 33.7C40.1482 31.9333 42.6649 30.95 45.7982 30.75V26.6H48.4982V30.75C51.3316 30.9833 53.6149 31.9 55.3482 33.5C57.0816 35.0667 58.0816 37.1167 58.3482 39.65H53.4982C53.3316 38.4833 52.8149 37.4333 51.9482 36.5C51.0816 35.5333 49.9316 34.9 48.4982 34.6V46.8C50.6982 47.3667 52.4816 47.95 53.8482 48.55C55.2482 49.1167 56.4149 50.0333 57.3482 51.3C58.3149 52.5667 58.7982 54.2833 58.7982 56.45ZM40.0982 40.15C40.0982 41.7833 40.5816 43.0333 41.5482 43.9C42.5149 44.7667 43.9316 45.4833 45.7982 46.05V34.5C44.0649 34.6667 42.6816 35.2333 41.6482 36.2C40.6149 37.1333 40.0982 38.45 40.0982 40.15ZM48.4982 62.6C50.2982 62.4 51.6982 61.75 52.6982 60.65C53.7316 59.55 54.2482 58.2333 54.2482 56.7C54.2482 55.0667 53.7482 53.8167 52.7482 52.95C51.7482 52.05 50.3316 51.3333 48.4982 50.8V62.6Z" fill="#3F3F3F"/>
</svg>
