<svg width="201" height="60" viewBox="0 0 201 60" fill="none" xmlns="http://www.w3.org/2000/svg">
<path fill-rule="evenodd" clip-rule="evenodd" d="M47.7456 26.5955C38.0753 20.8526 22.1244 20.3246 12.8929 23.1264C11.4105 23.576 9.84285 22.7391 9.39362 21.2567C8.94439 19.7736 9.78052 18.207 11.264 17.7564C21.861 14.5397 39.4771 15.1609 50.6097 21.7694C51.9434 22.5611 52.3809 24.2831 51.5902 25.6143C50.7992 26.9477 49.0757 27.3873 47.7456 26.5955ZM47.4299 35.1015C46.7517 36.2024 45.3123 36.5474 44.2129 35.8718C36.1507 30.9159 23.857 29.4804 14.3189 32.3757C13.0819 32.7493 11.7754 32.0519 11.4 30.8174C11.0271 29.5804 11.7249 28.2764 12.9594 27.9002C23.8556 24.594 37.4006 26.1954 46.6604 31.886C47.7598 32.5631 48.1059 34.0032 47.4299 35.1015ZM43.7587 43.2708C43.2199 44.1545 42.0686 44.4318 41.188 43.893C34.1429 39.5873 25.2757 38.6147 14.8331 41.0002C13.8268 41.2309 12.8241 40.6001 12.5945 39.5942C12.3637 38.5879 12.9921 37.5851 14.0005 37.3555C25.4284 34.7429 35.2312 35.8674 43.1386 40.6993C44.0202 41.2378 44.2979 42.3895 43.7587 43.2708ZM30.0004 0C13.4318 0 0 13.4311 0 29.9996C0 46.5693 13.4318 60 30.0004 60C46.5693 60 60.0004 46.5693 60.0004 29.9996C60.0004 13.4311 46.5693 0 30.0004 0ZM81.6199 27.695C76.4401 26.4598 75.5177 25.5928 75.5177 23.7715C75.5177 22.0502 77.1384 20.8924 79.5479 20.8924C81.8836 20.8924 84.1992 21.7718 86.6277 23.5824C86.7012 23.6372 86.7932 23.659 86.8839 23.6447C86.9745 23.6311 87.0544 23.5817 87.1078 23.5064L89.6369 19.9412C89.7408 19.7944 89.7125 19.5923 89.5725 19.4798C86.6825 17.1609 83.4283 16.0336 79.6245 16.0336C74.0317 16.0336 70.1251 19.3899 70.1251 24.1921C70.1251 29.3418 73.4951 31.1652 79.3186 32.5727C84.2752 33.7145 85.1117 34.6706 85.1117 36.3808C85.1117 38.2756 83.4201 39.4534 80.6978 39.4534C77.6746 39.4534 75.2082 38.435 72.4494 36.0459C72.3809 35.9871 72.2871 35.9599 72.2004 35.9649C72.1094 35.9724 72.0259 36.0147 71.9679 36.0846L69.1321 39.4595C69.0131 39.5996 69.0282 39.8088 69.1654 39.9299C72.3756 42.7955 76.323 44.3094 80.5832 44.3094C86.6098 44.3094 90.5042 41.0161 90.5042 35.9194C90.5042 31.6119 87.9307 29.2297 81.6199 27.695ZM103.066 39.6434C106.274 39.6434 108.514 37.1052 108.514 33.468C108.514 29.8892 106.222 27.2927 103.066 27.2927C99.8942 27.2927 97.5019 29.9466 97.5019 33.468C97.5019 36.9899 99.8942 39.6434 103.066 39.6434ZM97.6177 25.7238C99.3846 23.6155 101.527 22.5867 104.139 22.5867C108.993 22.5867 113.907 26.3242 113.907 33.4682C113.907 40.6107 108.993 44.3472 104.139 44.3472C101.528 44.3472 99.3849 43.3785 97.6177 41.3953V49.7179C97.6177 49.9053 97.4658 50.0579 97.2785 50.0579H92.6407C92.4534 50.0579 92.3018 49.9053 92.3018 49.7179V23.3508C92.3018 23.1634 92.4534 23.0108 92.6407 23.0108H97.2785C97.4658 23.0108 97.6177 23.1634 97.6177 23.3508V25.7238ZM126.502 39.6814C123.177 39.6814 120.67 37.0101 120.67 33.4681C120.67 29.9115 123.09 27.3301 126.425 27.3301C129.771 27.3301 132.295 30.0015 132.295 33.5459C132.295 37.1021 129.858 39.6814 126.502 39.6814ZM126.502 22.5867C120.251 22.5867 115.354 27.4 115.354 33.5459C115.354 39.6249 120.217 44.3877 126.425 44.3877C132.698 44.3877 137.61 39.5905 137.61 33.4682C137.61 27.3663 132.732 22.5867 126.502 22.5867ZM145.855 23.0107H150.959C151.146 23.0107 151.297 23.1633 151.297 23.3507V27.3368C151.297 27.5238 151.146 27.6764 150.959 27.6764H145.855V37.264C145.855 38.7782 146.519 39.4535 148.007 39.4535C148.973 39.4535 149.836 39.2461 150.73 38.7965C150.833 38.7453 150.959 38.7485 151.06 38.8119C151.16 38.8735 151.221 38.9839 151.221 39.101V42.8969C151.221 43.018 151.155 43.1319 151.05 43.191C149.749 43.9286 148.369 44.2722 146.705 44.2722C142.614 44.2722 140.539 42.159 140.539 37.9908V27.6764H138.309C138.122 27.6764 137.971 27.5238 137.971 27.3368V23.3507C137.971 23.1633 138.122 23.0107 138.309 23.0107H140.539V17.7926C140.539 17.6053 140.692 17.453 140.879 17.453H145.517C145.704 17.453 145.855 17.6053 145.855 17.7926V23.0107ZM168.741 23.0313V22.3904C168.741 20.505 169.464 19.6642 171.085 19.6642C172.052 19.6642 172.829 19.8562 173.699 20.1464C173.806 20.1801 173.917 20.1632 174.005 20.0991C174.094 20.035 174.145 19.9322 174.145 19.8233V15.9149C174.145 15.7659 174.049 15.6333 173.905 15.5892C172.986 15.3163 171.81 15.0354 170.05 15.0354C165.766 15.0354 163.502 17.4478 163.502 22.0092V22.9908H161.273C161.086 22.9908 160.933 23.1434 160.933 23.3304V27.337C160.933 27.524 161.086 27.6766 161.273 27.6766H163.502V43.586C163.502 43.7733 163.653 43.9256 163.84 43.9256H168.478C168.665 43.9256 168.818 43.7733 168.818 43.586V27.6766H173.148L179.781 43.5817C179.028 45.2529 178.288 45.5853 177.277 45.5853C176.46 45.5853 175.599 45.3413 174.72 44.8599C174.637 44.8144 174.539 44.8069 174.449 44.8344C174.361 44.866 174.286 44.9315 174.249 45.0179L172.677 48.4666C172.602 48.6296 172.666 48.8209 172.823 48.9055C174.464 49.7943 175.945 50.1736 177.776 50.1736C181.201 50.1736 183.094 48.578 184.763 44.2863L192.809 23.4941C192.849 23.3895 192.838 23.2717 192.773 23.1785C192.71 23.0868 192.607 23.0313 192.494 23.0313H187.666C187.522 23.0313 187.392 23.123 187.345 23.2591L182.398 37.387L176.981 23.2498C176.931 23.118 176.805 23.0313 176.664 23.0313H168.741ZM153.794 23.0106H158.432C158.619 23.0106 158.772 23.1632 158.772 23.3506V43.5857C158.772 43.7731 158.619 43.9253 158.432 43.9253H153.794C153.607 43.9253 153.454 43.7731 153.454 43.5857V23.3506C153.454 23.1632 153.607 23.0106 153.794 23.0106ZM156.137 13.7971C154.3 13.7971 152.808 15.2849 152.808 17.1223C152.808 18.9604 154.3 20.4496 156.137 20.4496C157.974 20.4496 159.463 18.9604 159.463 17.1223C159.463 15.2849 157.974 13.7971 156.137 13.7971ZM196.109 25.0237H196.959C197.383 25.0237 197.636 25.2125 197.636 25.565C197.636 25.8999 197.383 26.1074 196.959 26.1074H196.109V25.0237ZM198.433 27.862L197.51 26.5695C197.98 26.4337 198.305 26.0905 198.305 25.5288C198.305 24.8431 197.781 24.4362 196.985 24.4362H195.458V27.862H196.109V26.6766H196.824L197.655 27.862H198.433ZM193.849 26.2526C193.849 24.6251 195.114 23.296 196.786 23.296C198.45 23.296 199.707 24.6072 199.707 26.2339C199.707 27.8621 198.44 29.1905 196.769 29.1905C195.105 29.1905 193.849 27.879 193.849 26.2526ZM193.505 26.2523C193.505 28.0424 194.933 29.5166 196.769 29.5166C198.604 29.5166 200.05 28.0238 200.05 26.2337C200.05 24.445 198.621 22.9712 196.786 22.9712C194.952 22.9712 193.505 24.4618 193.505 26.2523Z" fill="#1ED760"/>
</svg>
