<svg width="94" height="68" viewBox="0 0 94 68" fill="none" xmlns="http://www.w3.org/2000/svg">
<rect x="9" y="9" width="85" height="59" rx="4" fill="#DFF0F8"/>
<path d="M86 11.6784C86 8.84631 84.875 6.13022 82.8724 4.12763C80.8698 2.12504 78.1537 1 75.3216 1H11.6784C8.84631 1 6.13022 2.12504 4.12763 4.12763C2.12504 6.13022 1 8.84631 1 11.6784V50.5477C1 53.3798 2.12504 56.0959 4.12763 58.0985C6.13022 60.1011 8.84631 61.2261 11.6784 61.2261H75.3216C78.1537 61.2261 80.8698 60.1011 82.8724 58.0985C84.875 56.0959 86 53.3798 86 50.5477V11.6784ZM11.5716 5.27136H75.3216C77.0209 5.27136 78.6505 5.94638 79.8521 7.14793C81.0536 8.34949 81.7286 9.97914 81.7286 11.6784V14.4548H5.27136V11.6784C5.27136 9.97914 5.94638 8.34949 7.14793 7.14793C8.34949 5.94638 9.97914 5.27136 11.6784 5.27136H11.5716ZM81.7286 18.8329V25.3467H5.27136V18.8329H81.7286ZM75.3216 56.9548H11.6784C9.97914 56.9548 8.34949 56.2797 7.14793 55.0782C5.94638 53.8766 5.27136 52.247 5.27136 50.5477V29.6181H81.7286V50.5477C81.7286 52.247 81.0536 53.8766 79.8521 55.0782C78.6505 56.2797 77.0209 56.9548 75.3216 56.9548Z" fill="#3F3F3F" stroke="white"/>
<path d="M69.9822 41.3647H59.7309C59.1645 41.3647 58.6213 41.5898 58.2207 41.9903C57.8202 42.3908 57.5952 42.934 57.5952 43.5004C57.5952 44.0668 57.8202 44.6101 58.2207 45.0106C58.6213 45.4111 59.1645 45.6361 59.7309 45.6361H70.0889C70.6554 45.6361 71.1986 45.4111 71.5991 45.0106C71.9996 44.6101 72.2246 44.0668 72.2246 43.5004C72.2246 42.934 71.9996 42.3908 71.5991 41.9903C71.1986 41.5898 70.6554 41.3647 70.0889 41.3647H69.9822Z" fill="#3F3F3F"/>
</svg>
