<svg width="100" height="100" viewBox="0 0 100 100" fill="none" xmlns="http://www.w3.org/2000/svg">
<rect x="31" y="26.5" width="47" height="31" fill="#E6D8F6"/>
<path d="M28.5 33C33.1944 33 37 29.1944 37 24.5C37 19.8056 33.1944 16 28.5 16C23.8056 16 20 19.8056 20 24.5C20 29.1944 23.8056 33 28.5 33Z" fill="#DFF0F8"/>
<path fill-rule="evenodd" clip-rule="evenodd" d="M74.5555 55.7756H28.2841C27.7517 55.7756 27.3201 55.344 27.3201 54.8116V23.964C27.3201 23.4316 27.7517 23 28.2841 23H74.5555C75.0879 23 75.5195 23.4316 75.5195 23.964V54.8116C75.5195 55.344 75.0879 55.7756 74.5555 55.7756ZM73.5913 24.928H29.2478V53.8476H73.5913V24.928ZM70.3773 30.357C70.6724 30.2525 70.9999 30.2978 71.2555 30.4785C71.511 30.659 71.663 30.9523 71.6633 31.2651V47.0437C71.6631 47.3566 71.511 47.6501 71.2553 47.8306C70.9997 48.0111 70.6723 48.0563 70.3773 47.9518C70.1719 47.8747 69.9547 47.8336 69.7353 47.8303C68.6705 47.8303 67.8073 48.6935 67.8073 49.7583C67.8106 49.9777 67.8517 50.1949 67.9288 50.4003C68.0333 50.6953 67.9881 51.0227 67.8076 51.2783C67.6271 51.534 67.3337 51.6861 67.0207 51.6862H35.8183C35.5054 51.6861 35.212 51.534 35.0315 51.2783C34.8509 51.0227 34.8057 50.6953 34.9103 50.4003C34.9874 50.1949 35.0285 49.9777 35.0317 49.7583C35.0317 48.6935 34.1685 47.8303 33.1038 47.8303C32.8844 47.8336 32.6672 47.8747 32.4617 47.9518C32.1667 48.0563 31.8394 48.0111 31.5837 47.8306C31.3281 47.6501 31.176 47.3566 31.1758 47.0437V31.2651C31.176 30.9522 31.3281 30.6588 31.5837 30.4782C31.8394 30.2977 32.1667 30.2525 32.4617 30.357C32.6672 30.4342 32.8844 30.4752 33.1038 30.4785C34.1685 30.4785 35.0317 29.6153 35.0317 28.5505C35.0285 28.3311 34.9874 28.1139 34.9103 27.9085C34.8057 27.6135 34.8509 27.2861 35.0315 27.0305C35.212 26.7748 35.5054 26.6227 35.8183 26.6226H67.0207C67.3337 26.6227 67.6271 26.7748 67.8076 27.0305C67.9881 27.2861 68.0333 27.6135 67.9288 27.9085C67.8517 28.1139 67.8106 28.3311 67.8073 28.5505C67.8073 29.6153 68.6705 30.4785 69.7353 30.4785C69.9547 30.4752 70.1719 30.4342 70.3773 30.357ZM65.8794 49.7584C65.8794 47.6288 67.6057 45.9024 69.7353 45.9024V32.4066C67.6057 32.4066 65.8794 30.6802 65.8794 28.5507H36.9597C36.9597 30.6802 35.2333 32.4066 33.1038 32.4066V45.9024C35.2333 45.9024 36.9597 47.6288 36.9597 49.7584H65.8794ZM54.3115 35.2986C54.3115 33.7014 53.0167 32.4066 51.4195 32.4066C49.8224 32.4066 48.5276 33.7014 48.5276 35.2986C48.5276 36.8958 49.8224 38.1905 51.4195 38.1905C53.8958 38.1881 55.9711 40.0624 56.2199 42.5261C56.4688 44.9898 54.8103 47.2413 52.3835 47.734V48.7944H50.4556V47.734C48.2129 47.2728 46.6025 45.3001 46.5996 43.0105H48.5276C48.5276 44.6077 49.8224 45.9024 51.4195 45.9024C53.0167 45.9024 54.3115 44.6077 54.3115 43.0105C54.3115 41.4133 53.0167 40.1185 51.4195 40.1185C48.9433 40.121 46.868 38.2467 46.6192 35.783C46.3703 33.3193 48.0288 31.0678 50.4556 30.575V29.5146H52.3835V30.575C54.6262 31.0362 56.2366 33.009 56.2395 35.2986H54.3115ZM35.6683 63.4125C36.3886 65.2654 35.8974 67.3706 34.4313 68.7133C37.7041 70.041 39.847 73.2182 39.8518 76.75H37.9238C37.9238 73.0233 34.9027 70.0021 31.1759 70.0021C27.4491 70.0021 24.428 73.0233 24.428 76.75H22.5C22.5048 73.2182 24.6477 70.041 27.9205 68.7133C26.4544 67.3706 25.9631 65.2654 26.6834 63.4125C27.4038 61.5595 29.1878 60.3389 31.1759 60.3389C33.1639 60.3389 34.948 61.5595 35.6683 63.4125ZM31.1759 62.2903C29.5787 62.2903 28.2839 63.5851 28.2839 65.1822C28.2839 66.7794 29.5787 68.0742 31.1759 68.0742C32.7731 68.0742 34.0679 66.7794 34.0679 65.1822C34.0679 63.5851 32.7731 62.2903 31.1759 62.2903ZM74.9188 68.7133C76.3849 67.3706 76.8762 65.2654 76.1559 63.4125C75.4356 61.5595 73.6515 60.3389 71.6634 60.3389C69.6754 60.3389 67.8913 61.5595 67.171 63.4125C66.4507 65.2654 66.942 67.3706 68.4081 68.7133C65.1353 70.041 62.9923 73.2182 62.9875 76.75H64.9155C64.9155 73.0233 67.9367 70.0021 71.6634 70.0021C75.3902 70.0021 78.4114 73.0233 78.4114 76.75H80.3393C80.3346 73.2182 78.1916 70.041 74.9188 68.7133ZM68.7717 65.1822C68.7717 63.5851 70.0665 62.2903 71.6637 62.2903C73.2609 62.2903 74.5557 63.5851 74.5557 65.1822C74.5557 66.7794 73.2609 68.0742 71.6637 68.0742C70.0665 68.0742 68.7717 66.7794 68.7717 65.1822ZM44.6716 66.1461V64.2181H40.8156C40.4258 64.2182 40.0744 64.4531 39.9252 64.8133C39.776 65.1734 39.8585 65.588 40.1341 65.8637L43.99 69.7196L45.3531 68.3565L43.1427 66.1461H44.6716ZM50.4556 64.2181H46.5996V66.1461H50.4556V64.2181ZM52.3835 64.2181H56.2395V66.1461H52.3835V64.2181ZM57.4861 62.0076L58.8492 60.6445L62.7051 64.5005C62.9807 64.7762 63.0632 65.1907 62.914 65.5509C62.7648 65.9111 62.4134 66.1459 62.0236 66.146H58.1676V64.218H59.6965L57.4861 62.0076Z" fill="#3F3F3F"/>
</svg>
