<svg width="92" height="103" viewBox="0 0 92 103" fill="none" xmlns="http://www.w3.org/2000/svg">
<path d="M29.5 57C45.7924 57 59 44.2401 59 28.5C59 12.7599 45.7924 0 29.5 0C13.2076 0 0 12.7599 0 28.5C0 44.2401 13.2076 57 29.5 57Z" fill="#DFF0F8"/>
<rect x="58.9702" y="16" width="45.983" height="77.0536" rx="4" transform="rotate(45 58.9702 16)" fill="#E4D2F7"/>
<path d="M19 56.7085L45.2915 83L77 51.2915L50.7085 25L19 56.7085ZM45.2915 79.1702L22.8298 56.7085L50.7085 28.8298L73.1702 51.2915L45.2915 79.1702Z" fill="#3F3F3F"/>
<path d="M47.4308 44.3728L45.25 46.554C44.3631 47.441 43.875 48.6196 43.875 49.8738C43.875 51.128 44.3631 52.3079 45.25 53.1936L48.8057 56.75C49.1674 57.1116 49.375 57.6136 49.375 58.1252C49.375 58.6368 49.1674 59.1387 48.8057 59.5004L46.625 61.6816C45.866 62.4393 44.634 62.4393 43.875 61.6816L40.3192 58.1252C39.9576 57.7635 39.75 57.2615 39.75 56.75C39.75 56.2384 39.9576 55.7364 40.3192 55.3747L42.0971 53.5965L40.1529 51.652L38.375 53.4301C37.4881 54.3172 37 55.4957 37 56.75C37 58.0042 37.4881 59.1841 38.375 60.0698L39.1808 60.8757L37.4029 62.6538L39.3471 64.5984L41.125 62.8203L41.9308 63.6261C42.8465 64.542 44.0483 65 45.25 65C46.4517 65 47.6549 64.542 48.5693 63.6261L50.75 61.445C51.6369 60.558 52.125 59.3794 52.125 58.1252C52.125 56.871 51.6369 55.691 50.75 54.8054L47.1942 51.249C46.8326 50.8873 46.625 50.3854 46.625 49.8738C46.625 49.3622 46.8326 48.8602 47.1942 48.4985L49.375 46.3174C50.134 45.5597 51.366 45.5597 52.125 46.3174L55.6807 49.8738C56.0424 50.2355 56.25 50.7374 56.25 51.249C56.25 51.7606 56.0424 52.2626 55.6807 52.6242L53.9029 54.4024L55.8471 56.347L57.625 54.5688C58.5119 53.6818 59 52.5032 59 51.249C59 49.9948 58.5119 48.8148 57.625 47.9292L56.8193 47.1233L58.5971 45.3451L56.6529 43.4005L54.875 45.1787L54.0693 44.3728C52.2391 42.5424 49.2609 42.5424 47.4308 44.3728Z" fill="#3F3F3F"/>
<path d="M67.6655 68.9032H67.5286L87.6873 48.7446C89.179 47.2543 90 45.2708 90 43.1613C90 41.0518 89.179 39.0683 87.6873 37.578L64.422 14.3127C62.9317 12.821 60.9482 12 58.8387 12C56.7292 12 54.7457 12.821 53.2554 14.3127L33.0968 34.4714V34.3345C33.0968 31.801 32.1105 29.4205 30.3194 27.6281L14.6899 12H12.9381C10.6065 12 8.70968 13.8968 8.70968 16.2285C8.70968 17.3232 9.12968 18.3488 9.88161 19.1373C8.39671 19.7944 7.35484 21.2766 7.35484 23.0026C7.35484 24.0974 7.77484 25.123 8.52677 25.9115C7.04187 26.5686 6 28.0508 6 29.7768C6 30.9068 6.44032 31.969 7.23832 32.767L16.2101 41.7387C18.0012 43.5298 20.383 44.5161 22.9165 44.5161H23.0534L8.31271 59.2554C6.82103 60.7457 6 62.7292 6 64.8387C6 66.9482 6.82103 68.9317 8.31271 70.422L31.578 93.6873C33.0683 95.179 35.0518 96 37.1613 96C39.2708 96 41.2543 95.179 42.7446 93.6873L57.4839 78.948V79.0848C57.4839 81.6184 58.4702 83.9988 60.2613 85.7913L69.233 94.763C70.031 95.5597 71.0932 96 72.2232 96C73.9492 96 75.4314 94.9581 76.0885 93.4732C76.877 94.2252 77.9026 94.6452 78.9974 94.6452C80.7234 94.6452 82.2056 93.6033 82.8627 92.1184C83.6512 92.8703 84.6768 93.2903 85.7716 93.2903C88.1032 93.2903 90 91.3936 90 89.0619V87.3101L74.3706 71.6806C72.5795 69.8895 70.1977 68.9032 67.6655 68.9032ZM73.181 43.1613H75.8907L82.6649 49.9355L45.2903 87.3101L14.6899 56.7097L52.0645 19.3351L58.8387 26.1093V28.819L73.181 43.1613ZM58.8387 14.7097C60.2234 14.7097 61.5267 15.2489 62.5063 16.2285L85.7716 39.4937C86.7511 40.4733 87.2903 41.7766 87.2903 43.1613C87.2903 44.5459 86.7511 45.8493 85.7716 46.8288L84.5806 48.0197L77.0125 40.4516H74.3028L61.5484 27.6972V24.9875L53.9803 17.4194L55.1712 16.2285C56.1507 15.2489 57.4541 14.7097 58.8387 14.7097ZM22.9152 41.8065C21.1065 41.8065 19.4048 41.1019 18.1245 39.823L9.15271 30.8512C8.86819 30.564 8.70968 30.1833 8.70968 29.7768C8.70968 28.9396 9.39116 28.2581 10.2285 28.2581H10.8585L18.5905 35.9901L20.5063 34.0744L11.9803 25.5484L10.5089 24.077C10.223 23.7898 10.0645 23.4091 10.0645 23.0026C10.0645 22.1654 10.746 21.4839 11.5833 21.4839H12.2133L21.3002 30.5708L22.655 31.9256L24.5708 30.0099L23.2159 28.655L13.3351 18.7742L11.8637 17.3028C11.5779 17.0156 11.4194 16.6349 11.4194 16.2285C11.4194 15.3912 12.1008 14.7097 12.9381 14.7097H13.5681L28.4036 29.5452C29.6826 30.8241 30.3871 32.5258 30.3871 34.3345V37.181L25.7617 41.8065H22.9152ZM40.8288 91.7716C38.8697 93.7307 35.4528 93.7307 33.4937 91.7716L10.2285 68.5063C9.2489 67.5267 8.70968 66.2234 8.70968 64.8387C8.70968 63.4541 9.2489 62.1507 10.2285 61.1712L12.7742 58.6254L43.3746 89.2258L40.8288 91.7716ZM87.2903 89.0619C87.2903 89.8992 86.6088 90.5806 85.7716 90.5806C85.3651 90.5806 84.9844 90.4221 84.6972 90.1363L83.2258 88.6649L73.345 78.7841L71.9901 77.4292L70.0744 79.345L71.4292 80.6998L80.5161 89.7867V90.4167C80.5161 91.254 79.8346 91.9355 78.9974 91.9355C78.5909 91.9355 78.2102 91.777 77.923 91.4911L76.4516 90.0197L67.9256 81.4937L66.0099 83.4095L73.7419 91.1415V91.7716C73.7419 92.6088 73.0605 93.2903 72.2232 93.2903C71.8167 93.2903 71.436 93.1318 71.1488 92.8459L62.177 83.8742C60.8981 82.5952 60.1936 80.8935 60.1936 79.0848V76.2383L64.819 71.6129H67.6655C69.4742 71.6129 71.1759 72.3174 72.4562 73.5964L87.2903 88.4319V89.0619Z" fill="#3F3F3F"/>
</svg>
