<svg width="131" height="46" viewBox="0 0 131 46" fill="none" xmlns="http://www.w3.org/2000/svg">
<path fill-rule="evenodd" clip-rule="evenodd" d="M9.83632 36.2475C8.8569 35.2043 8.09046 33.9482 7.53687 32.479C6.98328 31.0099 6.70656 29.3813 6.70656 27.5928V0H0V27.9759C0 30.6161 0.436429 33.0113 1.30943 35.1616C2.18228 37.3121 3.37469 39.1535 4.88622 40.6865C6.39775 42.2195 8.18629 43.401 10.2514 44.2314C12.3167 45.0617 14.5415 45.4769 16.9262 45.4769C19.2682 45.4769 21.4503 45.0511 23.473 44.1996C25.4956 43.3478 27.2522 42.1342 28.7425 40.5587V44.7105H35.3852V0H28.6786V27.5928C28.6786 29.3813 28.4019 30.9993 27.8483 32.4471C27.2947 33.8949 26.5176 35.1403 25.5169 36.1836C24.5163 37.2267 23.3454 38.0357 22.004 38.6106C20.6627 39.1856 19.2256 39.473 17.6926 39.473C16.117 39.473 14.6587 39.1963 13.3173 38.6427C11.9761 38.0891 10.8157 37.2908 9.83632 36.2475ZM46.9458 16.2873V0H40.4947V44.7103H46.8819V40.6225C48.3722 42.1128 50.1075 43.2945 52.0875 44.1673C54.0675 45.0403 56.2071 45.4768 58.5066 45.4768C60.8911 45.4768 63.1265 45.0297 65.2131 44.1355C67.2996 43.2413 69.1092 42.0277 70.6422 40.4947C72.1752 38.962 73.3888 37.1628 74.283 35.0976C75.1772 33.0325 75.6243 30.8288 75.6243 28.487C75.6243 26.145 75.1772 23.9308 74.283 21.8442C73.3888 19.7577 72.1752 17.9481 70.6422 16.4151C69.1092 14.8821 67.2996 13.6685 65.2131 12.7743C63.1265 11.8801 60.8913 11.4331 58.5066 11.4331C56.2073 11.4331 54.0781 11.8695 52.1194 12.7425C50.1607 13.6155 48.4361 14.797 46.9458 16.2873ZM47.6802 32.8941C48.255 34.2568 49.0535 35.4491 50.0755 36.471C51.0975 37.493 52.2897 38.3021 53.6523 38.8982C55.015 39.4944 56.484 39.7924 58.0595 39.7924C59.5926 39.7924 61.0402 39.4944 62.4028 38.8982C63.7653 38.3021 64.9469 37.4931 65.9478 36.471C66.9484 35.4492 67.7468 34.2568 68.3429 32.8941C68.939 31.5315 69.2371 30.0625 69.2371 28.487C69.2371 26.9114 68.939 25.4317 68.3429 24.0478C67.7468 22.6639 66.9484 21.461 65.9478 20.439C64.947 19.4172 63.7655 18.6187 62.4028 18.0439C61.0401 17.4691 59.5924 17.1815 58.0595 17.1815C56.5267 17.1815 55.0789 17.469 53.7163 18.0439C52.3537 18.6189 51.1615 19.4172 50.1394 20.439C49.1176 21.461 48.3084 22.6639 47.7123 24.0478C47.1162 25.4317 46.8181 26.9114 46.8181 28.487C46.818 30.0625 47.1054 31.5315 47.6802 32.8941ZM82.7774 16.5112C81.2872 18.0654 80.116 19.8644 79.2645 21.9083C78.4129 23.9523 77.987 26.1239 77.9873 28.4233C77.9873 30.8503 78.4344 33.0966 79.3286 35.1617C80.2228 37.2269 81.447 39.0259 83.0012 40.5589C84.5555 42.0919 86.3864 43.2843 88.4942 44.1358C90.602 44.9873 92.8694 45.4133 95.2966 45.4133C98.2772 45.4133 100.96 44.7958 103.344 43.561C105.729 42.3262 107.73 40.6229 109.348 38.4512L104.686 35.0022C102.301 38.1958 99.1714 39.7927 95.2964 39.7927C93.9337 39.7927 92.6458 39.5584 91.4322 39.09C90.2186 38.6218 89.1327 37.9724 88.1746 37.1419C87.2166 36.3116 86.4183 35.3322 85.7795 34.2038C85.1408 33.0756 84.715 31.8514 84.502 30.5313H111.009V28.4235C111.009 25.9963 110.604 23.7502 109.795 21.6849C108.986 19.6198 107.858 17.8312 106.41 16.3197C104.962 14.808 103.238 13.6264 101.237 12.7747C99.2352 11.9232 97.0635 11.4974 94.7215 11.4974C92.337 11.4974 90.1227 11.9444 88.0788 12.8386C86.0349 13.7328 84.2676 14.957 82.7774 16.5112ZM88.238 19.3851C86.4283 20.8968 85.2254 22.9088 84.6293 25.4211H104.494C103.94 22.9088 102.758 20.8968 100.949 19.3851C99.1389 17.8736 97.0205 17.1178 94.5934 17.1178C92.1662 17.1178 90.0478 17.8736 88.238 19.3851ZM121.036 26.1876C121.036 23.6326 121.717 21.61 123.08 20.1197C124.443 18.6294 126.188 17.8843 128.317 17.8841H131V11.8801H128.765C126.976 11.8801 125.432 12.2634 124.134 13.03C122.835 13.7964 121.781 14.8397 120.972 16.1598V12.1358H114.585V44.7106H121.036V26.1876Z" fill="#010202"/>
</svg>
